<svg id="Layer_1" data-name="Layer 1" xmlns="http://www.w3.org/2000/svg" xmlns:xlink="http://www.w3.org/1999/xlink" viewBox="0 0 129.38 200.55"><defs><style>.cls-1{fill:url(#linear-gradient);}.cls-2{fill:url(#linear-gradient-2);}.cls-3{fill:#f39638;}.cls-4{fill:url(#linear-gradient-3);}.cls-5,.cls-6{stroke:#312782;stroke-miterlimit:10;stroke-width:0.25px;}.cls-5{fill:url(#linear-gradient-4);}.cls-6{fill:url(#linear-gradient-5);}</style><linearGradient id="linear-gradient" x1="24.43" y1="193.82" x2="24.43" y2="69.89" gradientUnits="userSpaceOnUse"><stop offset="0" stop-color="#008d36"/><stop offset="0.05" stop-color="#129544"/><stop offset="0.15" stop-color="#41aa69"/><stop offset="0.29" stop-color="#8ccca4"/><stop offset="0.46" stop-color="#f2f9f5"/><stop offset="0.48" stop-color="#fff"/><stop offset="0.52" stop-color="#fef3e3"/><stop offset="0.62" stop-color="#fad69f"/><stop offset="0.72" stop-color="#f7bd66"/><stop offset="0.81" stop-color="#f5aa3a"/><stop offset="0.89" stop-color="#f39c1a"/><stop offset="0.95" stop-color="#f29407"/><stop offset="1" stop-color="#f29100"/></linearGradient><linearGradient id="linear-gradient-2" x1="180.12" y1="287.18" x2="180.12" y2="199.92" gradientUnits="userSpaceOnUse"><stop offset="0" stop-color="#008d36"/><stop offset="0.05" stop-color="#058f3a"/><stop offset="0.11" stop-color="#159647"/><stop offset="0.18" stop-color="#2fa25b"/><stop offset="0.26" stop-color="#53b277"/><stop offset="0.34" stop-color="#81c79c"/><stop offset="0.42" stop-color="#b9e0c8"/><stop offset="0.5" stop-color="#fbfdfc"/><stop offset="0.51" stop-color="#fff"/><stop offset="0.55" stop-color="#fef5e7"/><stop offset="0.72" stop-color="#f9ca85"/><stop offset="0.85" stop-color="#f5ac3d"/><stop offset="0.95" stop-color="#f39811"/><stop offset="1" stop-color="#f29100"/></linearGradient><linearGradient id="linear-gradient-3" x1="176.19" y1="218.19" x2="176.19" y2="89.88" gradientUnits="userSpaceOnUse"><stop offset="0" stop-color="#008d36"/><stop offset="0.04" stop-color="#0b923f"/><stop offset="0.12" stop-color="#2aa057"/><stop offset="0.23" stop-color="#5bb67e"/><stop offset="0.35" stop-color="#a0d5b4"/><stop offset="0.49" stop-color="#f6fbf8"/><stop offset="0.51" stop-color="#fff"/><stop offset="0.53" stop-color="#fef5e7"/><stop offset="0.58" stop-color="#fbdeb2"/><stop offset="0.63" stop-color="#f9c982"/><stop offset="0.69" stop-color="#f7b85a"/><stop offset="0.75" stop-color="#f5aa39"/><stop offset="0.8" stop-color="#f49f20"/><stop offset="0.86" stop-color="#f3970e"/><stop offset="0.93" stop-color="#f29203"/><stop offset="1" stop-color="#f29100"/></linearGradient><linearGradient id="linear-gradient-4" x1="197.18" y1="295.64" x2="197.18" y2="75.74" gradientUnits="userSpaceOnUse"><stop offset="0" stop-color="#008d36"/><stop offset="0.23" stop-color="#028e37"/><stop offset="0.31" stop-color="#09913d"/><stop offset="0.37" stop-color="#149646"/><stop offset="0.42" stop-color="#259e53"/><stop offset="0.46" stop-color="#3ba865"/><stop offset="0.5" stop-color="#57b47a"/><stop offset="0.53" stop-color="#77c294"/><stop offset="0.56" stop-color="#9dd3b2"/><stop offset="0.59" stop-color="#c8e6d4"/><stop offset="0.61" stop-color="#f6fbf8"/><stop offset="0.62" stop-color="#fff"/><stop offset="0.67" stop-color="#fce9cb"/><stop offset="0.73" stop-color="#f9ce8e"/><stop offset="0.8" stop-color="#f7b85b"/><stop offset="0.86" stop-color="#f5a734"/><stop offset="0.92" stop-color="#f39b17"/><stop offset="0.96" stop-color="#f29406"/><stop offset="1" stop-color="#f29100"/></linearGradient><linearGradient id="linear-gradient-5" x1="164.26" y1="295.64" x2="164.26" y2="75.74" gradientUnits="userSpaceOnUse"><stop offset="0" stop-color="#008d36"/><stop offset="0.06" stop-color="#189849"/><stop offset="0.19" stop-color="#57b47b"/><stop offset="0.38" stop-color="#bae0c9"/><stop offset="0.51" stop-color="#fff"/><stop offset="0.55" stop-color="#fef5e7"/><stop offset="0.72" stop-color="#f9ca85"/><stop offset="0.85" stop-color="#f5ac3d"/><stop offset="0.95" stop-color="#f39811"/><stop offset="1" stop-color="#f29100"/></linearGradient></defs><rect class="cls-1" x="1.32" y="76.61" width="46.23" height="123.93" rx="3.92"/><path class="cls-2" d="M207.14,283.61A20.81,20.81,0,0,1,178.21,278l-23.48-34.84-7.25-10.74A20.83,20.83,0,1,1,182,209.13l9.69,14.38,21,31.2A20.81,20.81,0,0,1,207.14,283.61Z" transform="translate(-87.29 -87.01)"/><circle class="cls-3" cx="24.84" cy="24.84" r="24.84"/><path class="cls-4" d="M215.13,182.2a76.48,76.48,0,0,1-18,36c-1.24-3.79-16.07-21.43-16.07-21.43-8.1-5.72-14-4.71-16.29-4a36.33,36.33,0,0,0-18.38-61.39,36.93,36.93,0,0,0-8.73-.69,33.6,33.6,0,0,0,5.13-12.28A34,34,0,0,0,135.71,90a77.07,77.07,0,0,1,79.42,92.22Z" transform="translate(-87.29 -87.01)"/><path class="cls-5" d="M197.13,218.19a1.48,1.48,0,0,1,.1.49" transform="translate(-87.29 -87.01)"/><path class="cls-6" d="M164.77,192.79a5.21,5.21,0,0,0-1,.41" transform="translate(-87.29 -87.01)"/></svg>