<svg width="100" height="102" viewBox="0 0 100 102" fill="none" xmlns="http://www.w3.org/2000/svg">
<path d="M88 12.5C88 15.5376 85.5376 18 82.5 18C79.4624 18 77 15.5376 77 12.5C77 9.46237 79.4624 7 82.5 7C85.5376 7 88 9.46237 88 12.5Z" fill="white"/>
<path d="M71.5 12C69.567 12 68 10.6569 68 8.99991C68 7.34314 69.567 6 71.5 6C73.4328 6 75 7.34314 75 8.99991C75 10.6569 73.4328 12 71.5 12Z" fill="#F9F6FB"/>
<path d="M5 89.0001C5 90.6568 3.88069 92 2.49996 92C1.1191 92 0 90.6568 0 89.0001C0 87.3432 1.1191 86 2.49996 86C3.88069 86 5 87.3432 5 89.0001Z" fill="white"/>
<path d="M9.99999 90C9.74411 90 9.48813 89.9023 9.29297 89.7071C8.90234 89.3166 8.90234 88.6833 9.29297 88.2929C9.48813 88.0976 9.74411 88 9.99999 88C10.2559 88 10.5118 88.0976 10.707 88.2929C11.0977 88.6833 11.0977 89.3166 10.707 89.7071C10.5118 89.9023 10.2559 90 9.99999 90Z" fill="#F9F6FB"/>
<path d="M88.5609 90.2931C89.1464 90.6834 89.1464 91.3165 88.5609 91.7071C87.9747 92.0976 87.0251 92.0976 86.4396 91.7071C85.8535 91.3165 85.8535 90.6834 86.4396 90.2931C87.0251 89.9023 87.9747 89.9023 88.5609 90.2931Z" fill="white"/>
<path d="M5.41416 29.5857C6.19528 30.3668 6.19528 31.6332 5.41416 32.4142C4.6331 33.1953 3.36669 33.1953 2.58579 32.4142C1.80474 31.6332 1.80474 30.3668 2.58579 29.5857C3.36669 28.8048 4.6331 28.8048 5.41416 29.5857Z" fill="white"/>
<path d="M89 70C88.488 70 87.9763 69.8047 87.5857 69.4141C86.8048 68.6332 86.8048 67.367 87.5857 66.5859C87.9763 66.1953 88.488 66 89 66C89.5119 66 90.0237 66.1953 90.4143 66.5859C91.1952 67.367 91.1952 68.6332 90.4143 69.4141C90.0237 69.8047 89.5119 70 89 70Z" fill="#F9F6FB"/>
<path d="M89.4141 27.5857C90.1953 28.3669 90.1953 29.6331 89.4141 30.4143C88.6332 31.1952 87.3668 31.1952 86.5859 30.4143C85.8047 29.6331 85.8047 28.3669 86.5859 27.5857C87.3668 26.8048 88.6332 26.8048 89.4141 27.5857Z" fill="white"/>
<path d="M85.7186 56C85.0313 55.7421 84.2467 55.4735 83.3723 55.1962C83.5527 54.1047 83.6855 52.9988 83.7685 51.8781C87.8349 53.1338 90.1203 54.2203 89.9951 54.9809C89.9949 54.9815 89.9947 54.9822 89.9947 54.9828C89.9947 54.983 89.9947 54.983 89.9947 54.9832C89.9945 54.9837 89.9943 54.9845 89.9943 54.9849C89.9943 54.9851 89.9943 54.9851 89.9943 54.9851C89.991 55.0038 89.9862 55.0222 89.98 55.0404C89.98 55.0406 89.98 55.0406 89.98 55.0408C89.9798 55.0412 89.9796 55.0419 89.9794 55.0423C89.9794 55.0425 89.9792 55.0427 89.9792 55.0431C89.979 55.0434 89.979 55.0436 89.9788 55.044C89.9786 55.0444 89.9786 55.0446 89.9784 55.045C89.9784 55.0452 89.9782 55.0455 89.9782 55.0457C89.7828 55.5927 88.2731 55.9049 85.7186 56ZM4.38307 43.1922C2.19244 42.3699 0.987271 41.654 1.0001 41.1021C1.00018 41.1019 1.00018 41.1021 1.00018 41.1019C1.00018 41.1014 1.00018 41.101 1.00018 41.1004V41.1002C1.00018 41.0996 1.00018 41.0993 1.00026 41.0989C1.00026 41.0987 1.00026 41.0985 1.00026 41.0985C1.00026 41.0981 1.00026 41.0976 1.00026 41.0972C1.00026 41.097 1.00033 41.097 1.00033 41.0966C1.00033 41.0964 1.00033 41.096 1.00033 41.0957C1.00033 41.0955 1.00033 41.0951 1.00039 41.0949C1.00039 41.0947 1.00039 41.0943 1.00039 41.0941C1.00039 41.0938 1.00039 41.0934 1.00047 41.0932C1.00047 41.093 1.00047 41.0926 1.00047 41.0924C1.00047 41.0923 1.00047 41.0919 1.00055 41.0915C1.00055 41.0913 1.00055 41.0911 1.00055 41.0909C1.00055 41.0905 1.00063 41.0902 1.00063 41.0898C1.00063 41.0896 1.00063 41.0896 1.00063 41.0894C1.00063 41.0888 1.0007 41.0887 1.0007 41.0881V41.0879C1.00078 41.0873 1.00078 41.0869 1.00086 41.0864C1.00086 41.0864 1.00086 41.0864 1.00086 41.0862C1.00138 41.0777 1.0023 41.0689 1.00345 41.0604L1.00496 41.0507C1.00442 41.054 1.00389 41.0572 1.00345 41.0604C1.00389 41.0572 1.00442 41.054 1.00496 41.0507C1.12038 40.3493 3.27351 40.0102 6.95502 40C6.69395 41.0371 6.47629 42.092 6.30451 43.1608C6.27992 43.1606 6.25515 43.1606 6.23077 43.1606C5.56532 43.1606 4.94884 43.171 4.38307 43.1922Z" fill="#D4C8E9"/>
<path d="M83 49C83 71.0912 65.7628 89 44.4999 89C23.237 89 6 71.0912 6 49C6 26.9086 23.237 9 44.4999 9C65.7628 9 83 26.9086 83 49Z" fill="white"/>
<path d="M70.1886 79.6296C71.1962 84.628 75.9579 87.8412 80.8244 86.8061C85.6907 85.7714 88.819 80.8803 87.8113 75.8819C87.0001 71.8571 83.7542 68.9918 79.9802 68.5677C78.0666 65.5468 76.0778 62 76.0778 62L74.5443 69.7254C71.2471 71.6546 69.3776 75.6066 70.1886 79.6296Z" fill="#FCD295"/>
<path d="M75 83H83V72H75V83Z" fill="#CAB0DE"/>
<path d="M74 82H82V71H74V82Z" fill="white"/>
<path d="M75 79H82V72H75V79Z" fill="#CAB0DE"/>
<path d="M75.1187 75.8398H81.154V75.0457H75.1187V75.8398Z" fill="#CAB0DE"/>
<path d="M80.7553 77.9184L79.9374 80.2727L79.1407 77.9184H77.9885L77.1705 80.2513L76.381 77.9184H75.1007L76.4735 81.7734H77.7822L78.5362 79.6752L79.2617 81.7734H80.5704L81.9431 77.9184H80.7553ZM83.8671 77.8544C83.2625 77.8544 82.6082 78.0108 82.1672 78.3024L82.6224 79.22C82.8856 79.0137 83.2981 78.8857 83.668 78.8857C84.2014 78.8857 84.4646 79.1062 84.4859 79.4974H83.7177C82.5228 79.4974 82.0036 79.9384 82.0036 80.6496C82.0036 81.3182 82.5157 81.8375 83.4403 81.8375C84.0023 81.8375 84.3863 81.6454 84.5784 81.2755V81.7734H85.8373V79.6325C85.8373 78.4091 85.1189 77.8544 83.8671 77.8544ZM83.8173 80.9839C83.4973 80.9839 83.3123 80.8203 83.3123 80.5927C83.3123 80.358 83.4688 80.2015 83.9027 80.2015H84.4859V80.5358C84.3792 80.8417 84.1161 80.9839 83.8173 80.9839ZM89.0162 80.671C88.9024 80.7492 88.753 80.7919 88.6037 80.7919C88.3618 80.7919 88.1982 80.6354 88.1982 80.3509V79.0706H89.0802V78.0606H88.1982V77.0577H86.8468V78.0606H86.2849V79.0706H86.8468V80.3651C86.8468 81.3538 87.423 81.8375 88.4116 81.8375C88.7672 81.8375 89.1158 81.7663 89.3505 81.617L89.0162 80.671ZM93.7009 79.853C93.7009 78.5798 92.7762 77.8544 91.6382 77.8544C90.4219 77.8544 89.5186 78.6794 89.5186 79.8388C89.5186 80.991 90.4077 81.8375 91.7805 81.8375C92.5131 81.8375 93.0536 81.6241 93.4235 81.2115L92.7122 80.4718C92.4491 80.6994 92.2001 80.8061 91.8231 80.8061C91.3253 80.8061 90.991 80.5785 90.8772 80.1873H93.6796C93.6867 80.0806 93.7009 79.9526 93.7009 79.853ZM91.6453 78.8146C92.065 78.8146 92.3637 79.0706 92.4348 79.476H90.8558C90.9341 79.0706 91.2257 78.8146 91.6453 78.8146ZM76.8433 87.3807V86.9184H75.5559V90.7734H76.9074V89.0024C76.9074 88.3267 77.2843 88.0493 77.832 88.0493C77.9316 88.0493 78.0169 88.0564 78.1378 88.0706V86.8544C77.5688 86.8544 77.1207 87.0322 76.8433 87.3807ZM83.7171 86.8544C83.1623 86.8544 82.6857 87.0748 82.3799 87.4589C82.1096 87.0464 81.6615 86.8544 81.1352 86.8544C80.68 86.8544 80.2745 87.0108 79.9829 87.3238V86.9184H78.6955V90.7734H80.0469V88.8601C80.0469 88.2627 80.3314 87.9995 80.7298 87.9995C81.0925 87.9995 81.313 88.2342 81.313 88.789V90.7734H82.6644V88.8601C82.6644 88.2627 82.9489 87.9995 83.3401 87.9995C83.6957 87.9995 83.9233 88.2342 83.9233 88.789V90.7734H85.2748V88.5685C85.2748 87.3736 84.6133 86.8544 83.7171 86.8544ZM87.7707 86.8544C87.1662 86.8544 86.5118 87.0108 86.0708 87.3024L86.526 88.22C86.7892 88.0137 87.2017 87.8857 87.5716 87.8857C88.105 87.8857 88.3682 88.1062 88.3896 88.4974H87.6214C86.4265 88.4974 85.9072 88.9384 85.9072 89.6496C85.9072 90.3182 86.4193 90.8375 87.344 90.8375C87.9059 90.8375 88.29 90.6454 88.482 90.2755V90.7734H89.741V88.6325C89.741 87.4091 89.0226 86.8544 87.7707 86.8544ZM87.721 89.9839C87.4009 89.9839 87.216 89.8203 87.216 89.5927C87.216 89.358 87.3724 89.2015 87.8063 89.2015H88.3896V89.5358C88.2829 89.8417 88.0197 89.9839 87.721 89.9839ZM91.8814 87.3807V86.9184H90.594V90.7734H91.9454V89.0024C91.9454 88.3267 92.3224 88.0493 92.87 88.0493C92.9696 88.0493 93.055 88.0564 93.1759 88.0706V86.8544C92.6069 86.8544 92.1588 87.0322 91.8814 87.3807ZM78.3868 99.7734H80.0227L78.2872 97.5685L79.8876 95.9184H78.2872L76.9074 97.2627V94.4958H75.5559V99.7734H76.9074V98.8275L77.3057 98.422L78.3868 99.7734Z" fill="#DEC8E8"/>
<path d="M77.1421 73.957H81.6856V73.163H77.1421V73.957Z" fill="#CAB0DE"/>
<path d="M82.7783 76.0356L81.9603 78.3898L81.1637 76.0356H80.0114L79.1935 78.3685L78.404 76.0356H77.1237L78.4964 79.8906H79.8052L80.5591 77.7924L81.2846 79.8906H82.5933L83.9661 76.0356H82.7783ZM85.8901 75.9715C85.2855 75.9715 84.6311 76.128 84.1901 76.4196L84.6453 77.3372C84.9085 77.1309 85.321 77.0029 85.6909 77.0029C86.2244 77.0029 86.4875 77.2234 86.5089 77.6146H85.7407C84.5458 77.6146 84.0265 78.0556 84.0265 78.7668C84.0265 79.4354 84.5387 79.9546 85.4633 79.9546C86.0252 79.9546 86.4093 79.7626 86.6013 79.3927V79.8906H87.8603V77.7497C87.8603 76.5263 87.1419 75.9715 85.8901 75.9715ZM85.8403 79.1011C85.5202 79.1011 85.3353 78.9375 85.3353 78.7099C85.3353 78.4752 85.4917 78.3187 85.9256 78.3187H86.5089V78.653C86.4022 78.9589 86.139 79.1011 85.8403 79.1011ZM91.0391 78.7882C90.9253 78.8664 90.776 78.9091 90.6266 78.9091C90.3848 78.9091 90.2212 78.7526 90.2212 78.4681V77.1878H91.1032V76.1778H90.2212V75.1749H88.8698V76.1778H88.3079V77.1878H88.8698V78.4823C88.8698 79.471 89.4459 79.9546 90.4346 79.9546C90.7902 79.9546 91.1387 79.8835 91.3734 79.7341L91.0391 78.7882ZM95.7238 77.9702C95.7238 76.697 94.7992 75.9715 93.6612 75.9715C92.4449 75.9715 91.5416 76.7966 91.5416 77.956C91.5416 79.1082 92.4307 79.9546 93.8034 79.9546C94.536 79.9546 95.0766 79.7413 95.4464 79.3287L94.7352 78.589C94.472 78.8166 94.2231 78.9233 93.8461 78.9233C93.3482 78.9233 93.0139 78.6957 92.9001 78.3045H95.7025C95.7096 78.1978 95.7238 78.0698 95.7238 77.9702ZM93.6683 76.9318C94.0879 76.9318 94.3867 77.1878 94.4578 77.5932H92.8788C92.957 77.1878 93.2486 76.9318 93.6683 76.9318ZM78.8663 85.4979V85.0356H77.5789V88.8906H78.9303V87.1196C78.9303 86.4439 79.3073 86.1665 79.855 86.1665C79.9545 86.1665 80.0399 86.1736 80.1608 86.1878V84.9715C79.5918 84.9715 79.1437 85.1494 78.8663 85.4979ZM85.74 84.9715C85.1852 84.9715 84.7087 85.192 84.4028 85.5761C84.1326 85.1636 83.6845 84.9715 83.1581 84.9715C82.7029 84.9715 82.2975 85.128 82.0059 85.441V85.0356H80.7185V88.8906H82.0699V86.9773C82.0699 86.3798 82.3544 86.1167 82.7527 86.1167C83.1154 86.1167 83.3359 86.3514 83.3359 86.9062V88.8906H84.6873V86.9773C84.6873 86.3798 84.9719 86.1167 85.3631 86.1167C85.7187 86.1167 85.9463 86.3514 85.9463 86.9062V88.8906H87.2977V86.6857C87.2977 85.4908 86.6362 84.9715 85.74 84.9715ZM89.7937 84.9715C89.1891 84.9715 88.5348 85.128 88.0938 85.4196L88.549 86.3372C88.8121 86.1309 89.2247 86.0029 89.5945 86.0029C90.128 86.0029 90.3912 86.2234 90.4125 86.6146H89.6443C88.4494 86.6146 87.9302 87.0556 87.9302 87.7668C87.9302 88.4354 88.4423 88.9546 89.3669 88.9546C89.9288 88.9546 90.3129 88.7626 90.505 88.3927V88.8906H91.7639V86.7497C91.7639 85.5263 91.0455 84.9715 89.7937 84.9715ZM89.7439 88.1011C89.4238 88.1011 89.2389 87.9375 89.2389 87.7099C89.2389 87.4752 89.3954 87.3187 89.8293 87.3187H90.4125V87.653C90.3058 87.9589 90.0426 88.1011 89.7439 88.1011ZM93.9043 85.4979V85.0356H92.6169V88.8906H93.9683V87.1196C93.9683 86.4439 94.3453 86.1665 94.893 86.1665C94.9926 86.1665 95.0779 86.1736 95.1988 86.1878V84.9715C94.6298 84.9715 94.1817 85.1494 93.9043 85.4979ZM80.4097 97.8906H82.0457L80.3102 95.6857L81.9105 94.0356H80.3102L78.9303 95.3798V92.613H77.5789V97.8906H78.9303V96.9446L79.3286 96.5392L80.4097 97.8906Z" fill="#DEC8E8"/>
<path d="M74.5884 73.957H76.4465V73.1631H74.5884V73.957Z" fill="#CAB0DE"/>
<path d="M76.0473 76.0356L75.2293 78.3898L74.4327 76.0356H73.2805L72.4625 78.3685L71.673 76.0356H70.3927L71.7655 79.8906H73.0742L73.8281 77.7924L74.5536 79.8906H75.8624L77.2351 76.0356H76.0473ZM79.1591 75.9715C78.5545 75.9715 77.9002 76.128 77.4592 76.4196L77.9144 77.3372C78.1776 77.1309 78.5901 77.0029 78.9599 77.0029C79.4934 77.0029 79.7566 77.2234 79.7779 77.6146H79.0097C77.8148 77.6146 77.2956 78.0556 77.2956 78.7668C77.2956 79.4354 77.8077 79.9546 78.7323 79.9546C79.2942 79.9546 79.6783 79.7626 79.8704 79.3927V79.8906H81.1293V77.7497C81.1293 76.5263 80.4109 75.9715 79.1591 75.9715ZM79.1093 79.1011C78.7892 79.1011 78.6043 78.9375 78.6043 78.7099C78.6043 78.4752 78.7608 78.3187 79.1947 78.3187H79.7779V78.653C79.6712 78.9589 79.408 79.1011 79.1093 79.1011ZM84.3082 78.7882C84.1944 78.8664 84.045 78.9091 83.8956 78.9091C83.6538 78.9091 83.4902 78.7526 83.4902 78.4681V77.1878H84.3722V76.1778H83.4902V75.1749H82.1388V76.1778H81.5769V77.1878H82.1388V78.4823C82.1388 79.471 82.7149 79.9546 83.7036 79.9546C84.0592 79.9546 84.4078 79.8835 84.6425 79.7341L84.3082 78.7882ZM88.9929 77.9702C88.9929 76.697 88.0682 75.9715 86.9302 75.9715C85.7139 75.9715 84.8106 76.7966 84.8106 77.956C84.8106 79.1082 85.6997 79.9546 87.0725 79.9546C87.8051 79.9546 88.3456 79.7413 88.7155 79.3287L88.0042 78.589C87.7411 78.8166 87.4921 78.9233 87.1151 78.9233C86.6172 78.9233 86.283 78.6957 86.1691 78.3045H88.9715C88.9787 78.1978 88.9929 78.0698 88.9929 77.9702ZM86.9373 76.9318C87.357 76.9318 87.6557 77.1878 87.7268 77.5932H86.1478C86.2261 77.1878 86.5177 76.9318 86.9373 76.9318ZM72.1353 85.4979V85.0356H70.8479V88.8906H72.1993V87.1196C72.1993 86.4439 72.5763 86.1665 73.124 86.1665C73.2236 86.1665 73.3089 86.1736 73.4298 86.1878V84.9715C72.8608 84.9715 72.4127 85.1494 72.1353 85.4979ZM79.0091 84.9715C78.4543 84.9715 77.9777 85.192 77.6719 85.5761C77.4016 85.1636 76.9535 84.9715 76.4272 84.9715C75.972 84.9715 75.5665 85.128 75.2749 85.441V85.0356H73.9875V88.8906H75.3389V86.9773C75.3389 86.3798 75.6234 86.1167 76.0217 86.1167C76.3845 86.1167 76.605 86.3514 76.605 86.9062V88.8906H77.9564V86.9773C77.9564 86.3798 78.2409 86.1167 78.6321 86.1167C78.9877 86.1167 79.2153 86.3514 79.2153 86.9062V88.8906H80.5667V86.6857C80.5667 85.4908 79.9053 84.9715 79.0091 84.9715ZM83.0627 84.9715C82.4582 84.9715 81.8038 85.128 81.3628 85.4196L81.818 86.3372C82.0812 86.1309 82.4937 86.0029 82.8636 86.0029C83.397 86.0029 83.6602 86.2234 83.6815 86.6146H82.9134C81.7184 86.6146 81.1992 87.0556 81.1992 87.7668C81.1992 88.4354 81.7113 88.9546 82.636 88.9546C83.1979 88.9546 83.582 88.7626 83.774 88.3927V88.8906H85.033V86.7497C85.033 85.5263 84.3146 84.9715 83.0627 84.9715ZM83.013 88.1011C82.6929 88.1011 82.508 87.9375 82.508 87.7099C82.508 87.4752 82.6644 87.3187 83.0983 87.3187H83.6815V87.653C83.5749 87.9589 83.3117 88.1011 83.013 88.1011ZM87.1734 85.4979V85.0356H85.886V88.8906H87.2374V87.1196C87.2374 86.4439 87.6144 86.1665 88.162 86.1665C88.2616 86.1665 88.347 86.1736 88.4679 86.1878V84.9715C87.8989 84.9715 87.4508 85.1494 87.1734 85.4979ZM73.6788 97.8906H75.3147L73.5792 95.6857L75.1796 94.0356H73.5792L72.1993 95.3798V92.613H70.8479V97.8906H72.1993V96.9446L72.5977 96.5392L73.6788 97.8906Z" fill="#DEC8E8"/>
<path d="M77.1421 77.7422H81.6856V76.9482H77.1421V77.7422Z" fill="#CAB0DE"/>
<path d="M82.7783 79.8168L81.9603 82.1711L81.1637 79.8168H80.0114L79.1935 82.1498L78.404 79.8168H77.1237L78.4964 83.6719H79.8052L80.5591 81.5736L81.2846 83.6719H82.5933L83.9661 79.8168H82.7783ZM85.8901 79.7528C85.2855 79.7528 84.6311 79.9093 84.1901 80.2009L84.6453 81.1184C84.9085 80.9122 85.321 80.7841 85.6909 80.7841C86.2244 80.7841 86.4875 81.0046 86.5089 81.3958H85.7407C84.5458 81.3958 84.0265 81.8368 84.0265 82.5481C84.0265 83.2167 84.5387 83.7359 85.4633 83.7359C86.0252 83.7359 86.4093 83.5438 86.6013 83.174V83.6719H87.8603V81.531C87.8603 80.3076 87.1419 79.7528 85.8901 79.7528ZM85.8403 82.8824C85.5202 82.8824 85.3353 82.7188 85.3353 82.4912C85.3353 82.2565 85.4917 82.1 85.9256 82.1H86.5089V82.4343C86.4022 82.7401 86.139 82.8824 85.8403 82.8824ZM91.0391 82.5694C90.9253 82.6476 90.776 82.6903 90.6266 82.6903C90.3848 82.6903 90.2212 82.5338 90.2212 82.2493V80.9691H91.1032V79.9591H90.2212V78.9562H88.8698V79.9591H88.3079V80.9691H88.8698V82.2636C88.8698 83.2522 89.4459 83.7359 90.4346 83.7359C90.7902 83.7359 91.1387 83.6648 91.3734 83.5154L91.0391 82.5694ZM95.7238 81.7515C95.7238 80.4783 94.7992 79.7528 93.6612 79.7528C92.4449 79.7528 91.5416 80.5779 91.5416 81.7372C91.5416 82.8895 92.4307 83.7359 93.8034 83.7359C94.536 83.7359 95.0766 83.5225 95.4464 83.11L94.7352 82.3703C94.472 82.5979 94.2231 82.7046 93.8461 82.7046C93.3482 82.7046 93.0139 82.4769 92.9001 82.0857H95.7025C95.7096 81.9791 95.7238 81.851 95.7238 81.7515ZM93.6683 80.713C94.0879 80.713 94.3867 80.9691 94.4578 81.3745H92.8788C92.957 80.9691 93.2486 80.713 93.6683 80.713ZM78.8663 89.2791V88.8168H77.5789V92.6719H78.9303V90.9008C78.9303 90.2251 79.3073 89.9477 79.855 89.9477C79.9545 89.9477 80.0399 89.9548 80.1608 89.9691V88.7528C79.5918 88.7528 79.1437 88.9306 78.8663 89.2791ZM85.74 88.7528C85.1852 88.7528 84.7087 88.9733 84.4028 89.3574C84.1326 88.9448 83.6845 88.7528 83.1581 88.7528C82.7029 88.7528 82.2975 88.9093 82.0059 89.2222V88.8168H80.7185V92.6719H82.0699V90.7586C82.0699 90.1611 82.3544 89.8979 82.7527 89.8979C83.1154 89.8979 83.3359 90.1326 83.3359 90.6874V92.6719H84.6873V90.7586C84.6873 90.1611 84.9719 89.8979 85.3631 89.8979C85.7187 89.8979 85.9463 90.1326 85.9463 90.6874V92.6719H87.2977V90.4669C87.2977 89.272 86.6362 88.7528 85.74 88.7528ZM89.7937 88.7528C89.1891 88.7528 88.5348 88.9093 88.0938 89.2009L88.549 90.1184C88.8121 89.9122 89.2247 89.7841 89.5945 89.7841C90.128 89.7841 90.3912 90.0046 90.4125 90.3958H89.6443C88.4494 90.3958 87.9302 90.8368 87.9302 91.5481C87.9302 92.2167 88.4423 92.7359 89.3669 92.7359C89.9288 92.7359 90.3129 92.5438 90.505 92.174V92.6719H91.7639V90.531C91.7639 89.3076 91.0455 88.7528 89.7937 88.7528ZM89.7439 91.8824C89.4238 91.8824 89.2389 91.7188 89.2389 91.4912C89.2389 91.2565 89.3954 91.1 89.8293 91.1H90.4125V91.4343C90.3058 91.7401 90.0426 91.8824 89.7439 91.8824ZM93.9043 89.2791V88.8168H92.6169V92.6719H93.9683V90.9008C93.9683 90.2251 94.3453 89.9477 94.893 89.9477C94.9926 89.9477 95.0779 89.9548 95.1988 89.9691V88.7528C94.6298 88.7528 94.1817 88.9306 93.9043 89.2791ZM80.4097 101.672H82.0457L80.3102 99.4669L81.9105 97.8168H80.3102L78.9303 99.1611V96.3943H77.5789V101.672H78.9303V100.726L79.3286 100.32L80.4097 101.672Z" fill="#DEC8E8"/>
<path d="M74.5884 77.7422H76.4465V76.9482H74.5884V77.7422Z" fill="#CAB0DE"/>
<path d="M76.0473 79.8168L75.2293 82.1711L74.4327 79.8168H73.2805L72.4625 82.1498L71.673 79.8168H70.3927L71.7655 83.6719H73.0742L73.8281 81.5736L74.5536 83.6719H75.8624L77.2351 79.8168H76.0473ZM79.1591 79.7528C78.5545 79.7528 77.9002 79.9093 77.4592 80.2009L77.9144 81.1184C78.1776 80.9122 78.5901 80.7841 78.9599 80.7841C79.4934 80.7841 79.7566 81.0046 79.7779 81.3958H79.0097C77.8148 81.3958 77.2956 81.8368 77.2956 82.5481C77.2956 83.2167 77.8077 83.7359 78.7323 83.7359C79.2942 83.7359 79.6783 83.5438 79.8704 83.174V83.6719H81.1293V81.531C81.1293 80.3076 80.4109 79.7528 79.1591 79.7528ZM79.1093 82.8824C78.7892 82.8824 78.6043 82.7188 78.6043 82.4912C78.6043 82.2565 78.7608 82.1 79.1947 82.1H79.7779V82.4343C79.6712 82.7401 79.408 82.8824 79.1093 82.8824ZM84.3082 82.5694C84.1944 82.6476 84.045 82.6903 83.8956 82.6903C83.6538 82.6903 83.4902 82.5338 83.4902 82.2493V80.9691H84.3722V79.9591H83.4902V78.9562H82.1388V79.9591H81.5769V80.9691H82.1388V82.2636C82.1388 83.2522 82.7149 83.7359 83.7036 83.7359C84.0592 83.7359 84.4078 83.6648 84.6425 83.5154L84.3082 82.5694ZM88.9929 81.7515C88.9929 80.4783 88.0682 79.7528 86.9302 79.7528C85.7139 79.7528 84.8106 80.5779 84.8106 81.7372C84.8106 82.8895 85.6997 83.7359 87.0725 83.7359C87.8051 83.7359 88.3456 83.5225 88.7155 83.11L88.0042 82.3703C87.7411 82.5979 87.4921 82.7046 87.1151 82.7046C86.6172 82.7046 86.283 82.4769 86.1691 82.0857H88.9715C88.9787 81.9791 88.9929 81.851 88.9929 81.7515ZM86.9373 80.713C87.357 80.713 87.6557 80.9691 87.7268 81.3745H86.1478C86.2261 80.9691 86.5177 80.713 86.9373 80.713ZM72.1353 89.2791V88.8168H70.8479V92.6719H72.1993V90.9008C72.1993 90.2251 72.5763 89.9477 73.124 89.9477C73.2236 89.9477 73.3089 89.9548 73.4298 89.9691V88.7528C72.8608 88.7528 72.4127 88.9306 72.1353 89.2791ZM79.0091 88.7528C78.4543 88.7528 77.9777 88.9733 77.6719 89.3574C77.4016 88.9448 76.9535 88.7528 76.4272 88.7528C75.972 88.7528 75.5665 88.9093 75.2749 89.2222V88.8168H73.9875V92.6719H75.3389V90.7586C75.3389 90.1611 75.6234 89.8979 76.0217 89.8979C76.3845 89.8979 76.605 90.1326 76.605 90.6874V92.6719H77.9564V90.7586C77.9564 90.1611 78.2409 89.8979 78.6321 89.8979C78.9877 89.8979 79.2153 90.1326 79.2153 90.6874V92.6719H80.5667V90.4669C80.5667 89.272 79.9053 88.7528 79.0091 88.7528ZM83.0627 88.7528C82.4582 88.7528 81.8038 88.9093 81.3628 89.2009L81.818 90.1184C82.0812 89.9122 82.4937 89.7841 82.8636 89.7841C83.397 89.7841 83.6602 90.0046 83.6815 90.3958H82.9134C81.7184 90.3958 81.1992 90.8368 81.1992 91.5481C81.1992 92.2167 81.7113 92.7359 82.636 92.7359C83.1979 92.7359 83.582 92.5438 83.774 92.174V92.6719H85.033V90.531C85.033 89.3076 84.3146 88.7528 83.0627 88.7528ZM83.013 91.8824C82.6929 91.8824 82.508 91.7188 82.508 91.4912C82.508 91.2565 82.6644 91.1 83.0983 91.1H83.6815V91.4343C83.5749 91.7401 83.3117 91.8824 83.013 91.8824ZM87.1734 89.2791V88.8168H85.886V92.6719H87.2374V90.9008C87.2374 90.2251 87.6144 89.9477 88.162 89.9477C88.2616 89.9477 88.347 89.9548 88.4679 89.9691V88.7528C87.8989 88.7528 87.4508 88.9306 87.1734 89.2791ZM73.6788 101.672H75.3147L73.5792 99.4669L75.1796 97.8168H73.5792L72.1993 99.1611V96.3943H70.8479V101.672H72.1993V100.726L72.5977 100.32L73.6788 101.672Z" fill="#DEC8E8"/>
<path d="M29.5547 73.0762C29.5547 73.0762 28.5856 81.1258 29.5547 84.8244C29.5547 84.8244 28.4658 85.6946 29.3393 87C29.3393 87 56.64 86.0209 64.309 85.042C64.309 85.042 65.8637 84.498 64.309 82.54L64.1017 72L29.5547 73.0762Z" fill="#C48A37"/>
<path d="M51 16.7509C51 16.7509 53.688 14.8614 53.9814 17.077C54.2748 19.2928 51 21 51 21V16.7509Z" fill="#A48CCD"/>
<path d="M36.3765 10.5126C36.4369 10.3563 36.9759 6.27975 42.8714 6.01183C48.7667 5.7439 51.3149 10.0841 51.6145 13.2991C51.9143 16.514 53.613 27.1769 46.3685 27.9271L46.6183 30.8741L43.0211 35L37.2007 29.0912L38.6247 25.7301C38.6247 25.7301 37.2257 24.8729 36.0268 22.3008C36.0268 22.3008 33.3789 21.8721 33.0291 19.1933C32.6794 16.514 35.5771 15.8174 36.4263 17.1034C36.4263 17.1034 35.1774 13.6206 36.3765 10.5126Z" fill="#CAB0DE"/>
<path d="M42.5942 8.43878C42.8709 8.72467 46.7695 13.2008 51.6425 11.2751C56.5153 9.34964 52.7492 4.1526 50.0437 4.84913C50.0437 4.84913 50.0969 1.68812 46.7018 1.90244C46.7018 1.90244 43.4662 -2.11584 38.5328 1.52739C33.5994 5.17061 31.4246 8.01014 32.8569 11.0106C32.8569 11.0106 28.9226 13.2628 32.5075 18.2969C32.5075 18.2969 33.8116 15.7788 36.623 18.2969C39.4344 20.8151 36.7291 15.886 37.0474 14.2252C37.3657 12.5642 39.6468 13.5287 39.6468 10.582C39.6468 7.63528 41.8204 7.63888 42.5942 8.43878Z" fill="#2D2A66"/>
<path d="M44.0151 15.6022C44.0633 15.9518 44.1113 16.3011 44.1591 16.6506C44.1742 16.7605 44.2737 16.8813 44.3559 16.9347C44.4476 16.9944 44.583 17.0197 44.6856 16.9827C44.7894 16.9454 44.8894 16.8741 44.9416 16.7642C44.9559 16.7263 44.9703 16.6885 44.9846 16.6506C45.0051 16.5663 45.0051 16.4821 44.9846 16.3978C44.9368 16.0482 44.8888 15.6989 44.8408 15.3494C44.8257 15.2395 44.7264 15.1187 44.6441 15.0653C44.5523 15.0056 44.4171 14.9803 44.3141 15.0173C44.2107 15.0546 44.1107 15.1257 44.0583 15.2358C44.0438 15.2737 44.0296 15.3115 44.0151 15.3494C43.995 15.4337 43.995 15.5179 44.0151 15.6022Z" fill="#2D2A66"/>
<path d="M49.015 15.319C49.066 15.4843 49.1166 15.6496 49.1674 15.8149C49.1854 15.8739 49.278 15.9362 49.3622 15.9654C49.453 15.997 49.5871 16.0104 49.6887 15.9908C49.7914 15.9711 49.8902 15.9333 49.9421 15.8751C49.9563 15.855 49.9706 15.835 49.9849 15.8149C50.005 15.7703 50.005 15.7257 49.9849 15.681C49.9341 15.5157 49.8834 15.3505 49.8326 15.1851C49.8147 15.1261 49.7219 15.0638 49.6379 15.0346C49.5471 15.003 49.413 14.9896 49.3112 15.0092C49.2087 15.0289 49.1096 15.0666 49.0579 15.1249C49.0438 15.145 49.0295 15.165 49.015 15.1851C48.995 15.2296 48.995 15.2743 49.015 15.319Z" fill="#2D2A66"/>
<path d="M47.0001 16.2081C46.9965 16.7587 47.06 17.4475 47.6959 17.7278C47.8391 17.791 47.9883 17.8134 48.1439 17.838C48.2567 17.8559 48.3848 17.8706 48.4548 17.9592C48.6277 18.1783 48.4206 18.4811 48.3002 18.676C48.1496 18.9195 48.5704 19.1371 48.7212 18.8934C48.8901 18.6202 49.0458 18.3319 48.9876 18.0125C48.9329 17.7134 48.6923 17.5046 48.3626 17.4378C48.2247 17.4097 48.0726 17.4078 47.9421 17.3558C47.8172 17.306 47.7223 17.2131 47.654 17.1106C47.4741 16.841 47.4857 16.5107 47.4873 16.2081C47.489 15.9308 47.0018 15.9304 47.0001 16.2081Z" fill="#2D2A66"/>
<path d="M43.3991 13.9987C43.7997 13.9612 44.2003 13.9237 44.601 13.8863C44.7084 13.8762 44.8045 13.8437 44.8829 13.7565C44.9523 13.68 45.0042 13.554 44.9997 13.4437C44.9908 13.2207 44.8237 12.9804 44.601 13.0013C44.2003 13.0388 43.7997 13.0761 43.3991 13.1138C43.2918 13.1238 43.1955 13.1564 43.1171 13.2435C43.0479 13.3202 42.9958 13.446 43.0003 13.5563C43.0092 13.7793 43.1765 14.0196 43.3991 13.9987Z" fill="#2D2A66"/>
<path d="M48.4631 13.9976C48.821 13.9311 49.1788 13.8651 49.5369 13.799C49.6623 13.7753 49.7722 13.7143 49.8641 13.5355C49.9444 13.3797 50.0049 13.1244 49.9997 12.9005C49.9945 12.6681 49.955 12.4276 49.8641 12.2655C49.7788 12.1132 49.6572 11.9803 49.5369 12.0024C49.1788 12.0689 48.821 12.1349 48.4631 12.2014C48.3375 12.2243 48.2278 12.2861 48.1357 12.4645C48.0556 12.6199 47.9951 12.8756 48.0003 13.0995C48.0057 13.3319 48.045 13.5728 48.1357 13.7345C48.2214 13.8868 48.3428 14.0197 48.4631 13.9976Z" fill="#2D2A66"/>
<path d="M34.1766 19.2915C34.7609 19.3009 35.3293 19.5421 35.6582 19.9282C35.7136 19.9933 35.8192 20.0222 35.9086 19.9806C35.9896 19.9429 36.0299 19.8466 35.9742 19.7812C35.5714 19.3082 34.8954 19.0115 34.1766 19C33.9411 18.9963 33.9411 19.2877 34.1766 19.2915Z" fill="#2D2A66"/>
<path d="M42.0984 27.2151C42.8746 27.4299 43.6482 27.6706 44.4535 27.8197C45.2394 27.9652 46.0513 28.0213 46.8599 27.9928C47.0461 27.9863 47.0473 27.7708 46.8599 27.7773C46.0485 27.8059 45.2376 27.7488 44.451 27.5969C43.6744 27.4467 42.9265 27.215 42.1757 27.0073C42.0004 26.9587 41.9245 27.167 42.0984 27.2151Z" fill="#2D2A66"/>
<path d="M36 23C36 23 37.2116 23.2344 38.1922 23.2813L39 26C39 26 36.8652 25.297 36 23Z" fill="#2D2A66"/>
<path d="M77 67.0736L38.1849 79L30 41.8005L69.9031 32L77 67.0736Z" fill="#5B62B7"/>
<path d="M31 42.4334L69.2467 33L76 66.5186L38.7922 78L31 42.4334Z" fill="#4753AD"/>
<path d="M29.7171 42L17 42.751L24.8528 74.0372L38 79L29.7171 42Z" fill="#2D2A66"/>
<path d="M70 32L29.6937 41.2847L17 42L53.3807 34.0268L70 32Z" fill="#404EA9"/>
<path d="M68.7482 52.9823L65.9168 38L35 45.8511L40.8725 73L71 63.3902L68.7482 52.9823Z" fill="#404EA9"/>
<path d="M69 39L66.066 39.3655L62 40.3767L62.9283 44.6356L63.509 45L69 39Z" fill="#3343A0"/>
<path d="M46.714 55.5169C46.714 55.5169 45.5362 54.4754 46.206 53.1972C46.206 53.1972 46.8025 52.3071 47.8299 52.181L49.901 52C49.901 52 47.6267 52.0961 47.8495 54.1971C48.0723 56.2985 50 55.9462 50 55.9462C50 55.9462 49.2167 56.2241 46.714 55.5169Z" fill="#3343A0"/>
<path d="M49.1793 52.0182C49.1793 52.0182 50.3634 51.7381 50.8798 53.3778C51.396 55.0174 50.0823 55.7878 50.0823 55.7878C50.0823 55.7878 48.7518 56.7323 48.1368 54.6363C47.5219 52.5403 49.1793 52.0182 49.1793 52.0182Z" fill="#5760B5"/>
<path d="M57.9003 47L56.1929 47.3179C56.1929 47.3179 53.3479 48.5257 54.139 51.9623C54.93 55.3989 58.3243 55.2752 59.6642 54.6626C61.0044 54.0498 57.9003 47 57.9003 47Z" fill="#3343A0"/>
<path d="M68.992 39L70 43.2264L62.9846 45L62 40.8718L68.992 39Z" fill="#5760B5"/>
<path d="M72 54L69.0659 54.4264L65 55.6061L65.9285 60.5748L66.5091 61L72 54Z" fill="#3343A0"/>
<path d="M71.9922 54L73 58.9309L65.9846 61L65 56.1839L71.9922 54Z" fill="#5760B5"/>
<path d="M61.8873 50.3471C62.3719 52.5263 61.2483 54.5852 59.3774 54.9458C57.5069 55.3061 55.5973 53.832 55.1127 51.6528C54.6279 49.4736 55.7516 47.4149 57.6223 47.0543C59.4932 46.6936 61.4026 48.1679 61.8873 50.3471Z" fill="#5760B5"/>
<path d="M60.9246 50.1239C61.224 51.4886 60.6053 52.7636 59.5422 52.9712C58.4792 53.1788 57.3749 52.2408 57.0754 50.876C56.776 49.5113 57.3949 48.2365 58.4579 48.0288C59.5208 47.821 60.6253 48.7592 60.9246 50.1239Z" fill="#3343A0"/>
<path d="M51 55.8613C51.0335 55.9555 53.7635 54.7546 54.9602 53.4644C56.1571 52.1745 58.4508 49.0724 58.7999 50.2696C59.1489 51.4669 57.4065 53.3718 57.5544 54.297C57.7027 55.2219 64.1038 52.0728 65.0669 51.1984C66.0302 50.324 66.0983 52.4758 65.0669 53.5768C64.0357 54.6779 63.4934 55.0588 63.4934 55.0588C63.4934 55.0588 65.6311 53.5894 66.0802 53.2085C66.5288 52.8276 67.5262 54.171 65.2325 55.8667L64.2352 56.8547C64.2352 56.8547 66.0802 56.4194 66.4292 56.5828C66.7782 56.7459 66.8922 57.5929 66.4113 58.285C66.4113 58.285 67.4847 58.7052 66.7326 59.7391C65.9803 60.773 53.5714 63 53.5714 63L51 55.8613Z" fill="#CAB0DE"/>
<path d="M43.7323 35.0294C43.6135 35.1849 47.1423 29.5222 47.1423 29.5222C47.1423 29.5222 45.7712 29.3901 53.5965 29.0168C60.0693 28.7082 64 32.7423 64 32.7423L40 37L43.7323 35.0294Z" fill="#FBAC39"/>
<path d="M43.3138 35.1906L37.4078 29C37.4078 29 29.1128 29.7565 26.1415 30.5129C23.1703 31.2695 18.051 42.9904 17.2802 57.3335C16.6186 69.6438 16.9443 72.0658 20.287 72.9482C23.6298 73.8307 55 63.1524 55 63.1524L51.945 55.2396C51.945 55.2396 34.6771 58.1225 30.2201 58.848L36.4277 38.055L44.511 36.1755L43.3138 35.1906Z" fill="#FBAC39"/>
<path d="M29 87.0365C29.0306 88.8466 29 96 29 96H65L63.6183 85L29 87.0365Z" fill="#4753AD"/>
<path d="M60 69.3682C60 69.3682 58.3548 68.3729 57.2561 66.8015C56.1574 65.2304 54.9289 63.826 53.9866 64.0176C53.0439 64.2089 54.8849 66.6655 54.509 67.3365C54.1334 68.0074 50.4801 67.1167 48.4657 66.6841C46.4513 66.2514 45.1692 67.0175 46.5122 67.9108C47.8552 68.8045 49.1242 68.9323 49.1242 68.9323C49.1242 68.9323 46.8363 68.9323 46.0943 68.9959C45.3522 69.06 44.1255 69.8894 45.9598 70.4001C47.7941 70.9109 48.1363 70.9746 48.1363 70.9746C48.1363 70.9746 45.2913 71.1485 45.5965 71.8593C45.9017 72.5703 46.758 72.4346 46.758 72.4346C46.758 72.4346 44.8828 72.9532 46.0943 73.6554C47.3057 74.3572 54.9416 75 54.9416 75L60 69.3682Z" fill="#CAB0DE"/>
<path d="M75 68C75 68 74.3355 77.6245 64.5 76.9679C56.7458 76.45 54 75.2941 54 75.2941L59.1956 69.6364C59.1956 69.6364 67.6868 70.0296 75 68Z" fill="#FBAC39"/>
<path d="M30.2642 59.9155C30.6908 58.8718 30.8881 57.6894 31.1295 56.5789C31.2557 55.9993 31.378 55.4181 31.5188 54.8427C31.6674 54.235 31.8565 53.64 32.0248 53.0392C32.9211 49.839 33.706 46.6001 34.5482 43.3815C35.0027 41.6449 35.4702 39.9118 35.9914 38.1991C36.0521 37.9999 35.7732 37.9145 35.7129 38.1123C34.7671 41.2205 33.9841 44.3899 33.1758 47.5463C32.7684 49.1381 32.3586 50.7293 31.924 52.3116C31.5935 53.5146 31.2424 54.6995 30.9751 55.9226C30.8207 56.6288 30.6708 57.3361 30.5042 58.0388C30.368 58.6134 30.2362 59.2087 30.0147 59.7507C29.9374 59.9402 30.1862 60.1064 30.2642 59.9155Z" fill="#2D2A66"/>
<path d="M51.0139 55.2002C52.2037 57.7626 53.3932 60.3251 54.583 62.8878C54.675 63.0857 55.079 63.0001 54.9863 62.7998C53.7965 60.2374 52.6069 57.6749 51.4169 55.1122C51.3249 54.9143 50.9206 54.9999 51.0139 55.2002Z" fill="#2D2A66"/>
<path d="M49.0088 56.189C49.5136 57.6999 49.8526 59.2591 50.317 60.7822C50.5413 61.518 50.7972 62.2448 51.1127 62.9466C51.1915 63.1218 51.2742 63.2955 51.3611 63.4667C51.4343 63.6115 51.5004 63.7891 51.6095 63.9112C51.7744 64.0957 52.0554 63.9733 51.9904 63.7218C51.9768 63.67 51.934 63.6276 51.8828 63.6135L51.8538 63.6057C51.6627 63.5535 51.581 63.8523 51.7722 63.9043L51.8013 63.9121C51.7655 63.8763 51.7298 63.8401 51.694 63.8041C51.826 63.7514 51.8547 63.6843 51.78 63.6029C51.767 63.5787 51.7538 63.5545 51.7407 63.5301C51.7018 63.4573 51.6639 63.3842 51.6264 63.3105C51.552 63.1636 51.4805 63.0151 51.4119 62.8652C51.2693 62.5529 51.1397 62.235 51.0202 61.913C50.7847 61.2802 50.5873 60.6339 50.4041 59.984C50.0398 58.6908 49.7312 57.3816 49.3053 56.1068C49.2423 55.9189 48.9454 55.9996 49.0088 56.189Z" fill="#2D2A66"/>
<path d="M50.1745 61.9998C51.4142 61.9376 52.649 61.7571 53.8693 61.4629C54.0982 61.4073 54.0011 60.9493 53.7731 61.0046C52.5841 61.2913 51.3824 61.4638 50.1745 61.5245C49.9424 61.536 49.9413 62.0116 50.1745 61.9998Z" fill="#2D2A66"/>
<path d="M51.1992 62.999C52.4304 62.8896 53.6514 62.6908 54.8519 62.3999C55.1114 62.3372 55.0014 61.9438 54.7413 62.0068C53.5769 62.2891 52.3936 62.4854 51.1992 62.5911C50.9349 62.6145 50.9323 63.0225 51.1992 62.999Z" fill="#2D2A66"/>
<path d="M37.0643 29.3045C38.1553 30.165 39.2071 31.0788 40.2154 32.0433C40.7138 32.5201 41.2015 33.0092 41.678 33.5097C41.8984 33.7415 42.1605 33.9721 42.3345 34.2459C42.4842 34.4819 42.5151 34.7743 42.7342 34.9616C42.8839 35.0897 43.0998 34.867 42.9486 34.7377C42.7315 34.5521 42.692 34.2052 42.5191 33.9754C42.324 33.7162 42.0847 33.4879 41.8624 33.2546C41.3756 32.744 40.8771 32.2454 40.3675 31.7598C39.359 30.7989 38.3065 29.89 37.2174 29.0309C37.0618 28.9081 36.9102 29.183 37.0643 29.3045Z" fill="#2D2A66"/>
<path d="M43.3122 34.9271C44.62 33.1016 45.7058 31.11 46.9696 29.2506C47.0925 29.0698 46.8113 28.8962 46.6897 29.0753C45.4258 30.9347 44.3399 32.9263 43.0322 34.7518C42.9051 34.929 43.1867 35.1022 43.3122 34.9271Z" fill="#2D2A66"/>
<path d="M62.2279 55.9774C62.8469 55.593 63.4431 55.1631 64.0107 54.6863C64.5293 54.2506 65.0753 53.7913 65.4855 53.218C65.8099 52.7648 66.1592 52.0417 65.9219 51.4464C65.8167 51.1826 65.595 51.0287 65.3466 51.0037C65.0262 50.9715 64.7395 51.1538 64.4776 51.3426C64.3129 51.4613 64.4649 51.7615 64.6305 51.6421C64.8531 51.4817 65.1149 51.2885 65.3906 51.3617C65.6933 51.4418 65.72 51.8082 65.6636 52.1012C65.5544 52.6717 65.1896 53.1218 64.8217 53.5006C63.9944 54.3525 63.0516 55.071 62.075 55.6777C61.9037 55.7843 62.0564 56.084 62.2279 55.9774Z" fill="#2D2A66"/>
<path d="M63.2287 57.9767C63.8205 57.5934 64.3987 57.1796 64.9605 56.7331C65.4821 56.3184 66.0279 55.8936 66.4548 55.3325C66.8173 54.8565 67.1726 54.1655 66.9083 53.507C66.692 52.9676 66.0919 52.8775 65.6896 53.1473C65.499 53.2755 65.3273 53.4494 65.1516 53.605C65.0058 53.7337 64.8257 53.9371 64.6417 53.9708C64.4496 54.006 64.5313 54.3644 64.7223 54.3292C64.8943 54.2979 65.0574 54.1398 65.1957 54.0211C65.3837 53.8598 65.5637 53.6834 65.7572 53.5321C65.9573 53.3755 66.248 53.2996 66.4665 53.4485C66.8103 53.6825 66.7056 54.2508 66.544 54.5858C66.1893 55.3215 65.5481 55.8127 64.981 56.2725C64.3651 56.7721 63.7287 57.2325 63.0757 57.6555C62.9031 57.7673 63.0563 58.0885 63.2287 57.9767Z" fill="#2D2A66"/>
<path d="M63.134 58.9731C64.0907 59.0819 65.048 58.8586 65.927 58.3424C66.0914 58.246 65.9492 57.9214 65.7856 58.0176C64.9527 58.5067 64.0386 58.6994 63.134 58.5968C62.9549 58.5762 62.9557 58.9528 63.134 58.9731Z" fill="#2D2A66"/>
<path d="M50.8679 68.7361C49.8559 68.5213 48.8434 68.3073 47.8318 68.0917C47.3646 67.992 46.8952 67.8913 46.4465 67.7537C46.1122 67.6511 45.3402 67.4507 45.3794 67.128C45.4004 66.9569 45.0234 66.9578 45.0027 67.128C44.9634 67.4497 45.3662 67.653 45.7167 67.7945C46.1978 67.9887 46.7223 68.1252 47.2484 68.2442C48.415 68.5078 49.5946 68.7448 50.7676 68.9937C51.0005 69.0431 51.1001 68.7854 50.8679 68.7361Z" fill="#2D2A66"/>
<path d="M48.8933 70.7272C48.0838 70.5675 47.2826 70.3723 46.4936 70.1393C46.3019 70.0828 46.1112 70.024 45.921 69.9632C45.7488 69.9079 45.5088 69.8685 45.3717 69.7497C45.0284 69.4523 46.0849 69.2918 46.255 69.2799C46.4444 69.2664 46.4461 68.9869 46.255 69.0005C46.0088 69.0179 45.7668 69.0597 45.5344 69.1392C45.3573 69.1998 45.1477 69.273 45.0493 69.4359C44.9586 69.5861 45.0005 69.7711 45.1146 69.8988C45.2546 70.0556 45.4761 70.1131 45.6745 70.1783C46.701 70.5146 47.7504 70.7866 48.8141 70.9965C49.0007 71.0334 49.0804 70.7643 48.8933 70.7272Z" fill="#2D2A66"/>
<path d="M48.8352 71.7758C48.0602 71.7984 47.2739 71.823 46.5024 71.7586C46.1727 71.7311 45.7709 71.7013 45.4783 71.6026C45.0835 71.4696 45.6425 71.2387 45.8777 71.1985C46.0888 71.1622 45.999 70.9681 45.7869 71.0045C45.4306 71.0656 45.0288 71.2382 45.0014 71.4748C44.9699 71.7423 45.4644 71.8286 45.8159 71.8826C46.7997 72.0339 47.8294 72.0063 48.8352 71.9769C49.0542 71.9705 49.0556 71.7693 48.8352 71.7758Z" fill="#2D2A66"/>
<path d="M53.1257 67.9846C53.7085 68.036 54.2912 67.9587 54.8698 67.7527C54.9397 67.7277 55 67.5981 55 67.3776C55 67.1939 54.9402 66.977 54.8698 67.002C54.2912 67.2084 53.7085 67.2857 53.1257 67.2334C52.958 67.2189 52.9582 67.9692 53.1257 67.9846Z" fill="#2D2A66"/>
<path d="M54.3101 74.9245C54.6314 74.4159 55.1161 74.0471 55.5771 73.6625C55.8044 73.4727 56.0288 73.2779 56.2262 73.059C56.4489 72.8118 56.6077 72.5219 56.8233 72.2704C57.2712 71.7483 57.8713 71.3355 58.3778 70.8676C58.9279 70.3598 59.4538 69.8283 59.9568 69.2766C60.0967 69.1233 59.8642 68.8975 59.7234 69.0516C59.2101 69.6142 58.673 70.1563 58.1109 70.6738C57.5949 71.1483 56.9808 71.5672 56.5375 72.108C56.3291 72.362 56.1694 72.6463 55.9432 72.8878C55.741 73.1032 55.5145 73.2957 55.2863 73.4849C54.8202 73.8714 54.3487 74.2516 54.0251 74.7636C53.9143 74.9391 54.1995 75.0992 54.3101 74.9245Z" fill="#2D2A66"/>
<path d="M56.2819 75.9178C56.947 74.6143 57.7223 73.3939 58.6687 72.3273C59.5126 71.3761 60.4465 70.4814 60.9831 69.2571C61.0683 69.0622 60.808 68.8907 60.7222 69.0864C60.1747 70.3361 59.2049 71.2283 58.3515 72.2058C57.4315 73.2599 56.673 74.4697 56.0212 75.7469C55.9244 75.936 56.1853 76.1067 56.2819 75.9178Z" fill="#2D2A66"/>
<path d="M55.1155 74.2978C55.6941 74.4561 56.2438 74.6841 56.7563 74.9763C56.9367 75.0794 57.1022 74.8186 56.9226 74.7161C56.3873 74.4106 55.8075 74.1723 55.2031 74.0071C54.9995 73.9513 54.9125 74.2424 55.1155 74.2978Z" fill="#2D2A66"/>
<path d="M56.0323 73.2701C56.2778 73.5547 56.5451 73.7955 56.8334 73.9815C56.8881 74.0166 56.9531 74.004 56.9858 73.9244C57.0136 73.8561 57.0009 73.7418 56.9457 73.7063C56.6761 73.5323 56.4181 73.3094 56.1897 73.0449C56.1431 72.9909 56.0779 72.9795 56.0323 73.0449C55.9932 73.1008 55.9854 73.2157 56.0323 73.2701Z" fill="#2D2A66"/>
<path d="M57.034 72.2369C57.2794 72.5098 57.5438 72.7584 57.8232 72.9806C57.8745 73.0215 57.9562 72.9943 57.9849 72.9306C58.0162 72.8601 57.9973 72.7834 57.9425 72.7398C57.6773 72.5291 57.4354 72.3003 57.2011 72.0397C57.1546 71.9882 57.0801 71.9853 57.034 72.0397C56.9899 72.092 56.9875 72.1852 57.034 72.2369Z" fill="#2D2A66"/>
<path d="M58.0514 71.2781C58.3071 71.5258 58.569 71.7602 58.8366 71.9807C58.8831 72.0191 58.9538 71.9998 58.9792 71.9273C59.0139 71.8292 59.0051 71.7295 58.9535 71.648C58.9157 71.5883 58.8446 71.5932 58.806 71.648C58.7646 71.7073 58.768 71.7987 58.806 71.8584C58.7917 71.8352 58.7893 71.8079 58.7992 71.7771C58.8467 71.7594 58.8943 71.7416 58.9418 71.7237C58.6743 71.5033 58.4124 71.2689 58.1568 71.021C58.1102 70.9757 58.0412 71.0084 58.0141 71.0743C57.9839 71.1477 58.0048 71.2326 58.0514 71.2781Z" fill="#2D2A66"/>
<path d="M59.0317 70.28C59.2807 70.5882 59.559 70.8279 59.8618 70.9925C59.9173 71.0225 59.9811 70.9585 59.996 70.8771C60.0126 70.7855 59.9755 70.7042 59.9198 70.674C59.6566 70.5312 59.4032 70.3154 59.1859 70.0466C59.1403 69.9902 59.0763 69.979 59.0317 70.0466C58.9932 70.1048 58.9858 70.2232 59.0317 70.28Z" fill="#2D2A66"/>
<path d="M60.0828 69.8963C60.3605 69.9798 60.6388 70.0129 60.917 69.9955C61.0275 69.989 61.0278 69.0931 60.917 69.1001C60.6388 69.1175 60.3605 69.0844 60.0828 69.0009C59.9722 68.9678 59.9726 69.8632 60.0828 69.8963Z" fill="#2D2A66"/>
<path d="M54.1157 75.3078C55.0895 75.4417 56.0516 75.6416 57.0169 75.8242C57.9856 76.0072 58.9603 76.1442 59.9364 76.2822C60.909 76.4198 61.8814 76.5575 62.8538 76.6947C63.8012 76.8289 64.7696 77.0382 65.73 76.994C66.2726 76.9688 66.8147 76.9217 67.3563 76.8838C67.8641 76.8482 68.4066 76.86 68.8909 76.6876C69.0832 76.6192 69.0001 76.3124 68.8061 76.3816C68.3752 76.535 67.9003 76.5286 67.4485 76.5602C66.9715 76.5934 66.4947 76.6282 66.0177 76.6599C65.0245 76.7259 64.0603 76.5475 63.0801 76.4089C61.1971 76.1425 59.2999 75.9218 57.429 75.5792C56.3535 75.3822 55.2844 75.1508 54.2007 75.0018C53.9996 74.9739 53.9127 75.2797 54.1157 75.3078Z" fill="#2D2A66"/>
<path d="M29.1544 86.9998C33.7824 86.7709 38.4077 86.4901 43.0335 86.2231C47.6934 85.9542 52.3545 85.6985 57.0192 85.5217C59.627 85.4227 62.2359 85.3491 64.8454 85.3123C65.0512 85.3093 65.0518 84.997 64.8454 85C60.1875 85.0653 55.5323 85.2491 50.8803 85.4822C46.2249 85.7151 41.5723 85.9979 36.9187 86.2659C34.3311 86.4149 31.7431 86.5593 29.1544 86.6872C28.9491 86.6973 28.948 87.01 29.1544 86.9998Z" fill="#2D2A66"/>
<path d="M63.1499 82.3235C63.6601 82.395 64.127 82.7386 64.4072 83.197C64.5475 83.4264 64.6459 83.6847 64.683 83.9573C64.7164 84.2033 64.705 84.5377 64.494 84.6932C64.3358 84.8098 64.4857 85.0894 64.6454 84.9716C65.2093 84.556 65.0013 83.6242 64.7035 83.0979C64.3656 82.5006 63.7947 82.0914 63.1499 82.0009C63.0689 81.9896 63.0007 82.0834 63 82.1623C62.9991 82.2586 63.07 82.3124 63.1499 82.3235Z" fill="#2D2A66"/>
<path d="M84.2308 22.8615C86.4583 17.2756 83.6833 10.9626 78.0331 8.7604C72.3825 6.55844 65.9963 9.30159 63.7689 14.8871C61.9753 19.3849 63.4268 24.3525 67.0094 27.2674C66.9969 31.5064 66.8796 37 66.8796 37L73.3218 29.7254C77.9508 30.009 82.438 27.357 84.2308 22.8615Z" fill="#FCD295"/>
<path d="M74.0001 13.8494C71.1601 13.8494 68.8496 16.1599 68.8496 19C68.8496 21.8401 71.1601 24.1506 74.0001 24.1506C76.8401 24.1506 79.1506 21.8401 79.1506 19C79.1506 16.1599 76.8401 13.8494 74.0001 13.8494ZM74.0001 26C70.1403 26 67 22.86 67 19C67 15.1402 70.1403 12 74.0001 12C77.8597 12 81 15.1402 81 19C81 22.86 77.8597 26 74.0001 26Z" fill="#404EA9"/>
<path d="M24.5906 13.5568C23.0715 8.67957 17.77 5.92195 12.7494 7.39794C7.72886 8.87373 4.89037 14.0238 6.40957 18.9013C7.63288 22.8285 11.3086 25.3794 15.3152 25.4546C17.6047 28.2824 20.5028 32 20.5028 32L20.9229 23.8044C24.2117 21.5834 25.8134 17.4825 24.5906 13.5568Z" fill="#FCD295"/>
<path d="M11 21H20V9H11V21Z" fill="#CAB0DE"/>
<path d="M11 22H20V10H11V22Z" fill="white"/>
<path d="M19 14H13V13H19V14Z" fill="#CAB0DE"/>
<path d="M19 17H13V16H19V17Z" fill="#CAB0DE"/>
<path d="M19 18H13V17H19V18Z" fill="#CAB0DE"/>
<path d="M19 19H13V18H19V19Z" fill="#CAB0DE"/>
<path d="M18.0039 12.3203H18.7118V11.5455H18.0039V12.3203Z" fill="white"/>
<path d="M20.9685 18.3424C21.8921 18.3424 22.6366 18.0059 23.1235 17.3974L22.2214 16.5812C21.9064 16.9607 21.5198 17.1683 21.0401 17.1683C20.2168 17.1683 19.644 16.5955 19.644 15.7364C19.644 14.8773 20.2168 14.3046 21.0401 14.3046C21.5198 14.3046 21.9064 14.5122 22.2214 14.8916L23.1235 14.0755C22.6366 13.4669 21.8921 13.1304 20.9685 13.1304C19.3791 13.1304 18.2122 14.2115 18.2122 15.7364C18.2122 17.2614 19.3791 18.3424 20.9685 18.3424Z" fill="#F8A0D4"/>
<path d="M18.5 13C18.2242 13 18 12.5515 18 12C18 11.4487 18.2242 11 18.5 11C18.7758 11 19 11.4487 19 12C19 12.5515 18.7758 13 18.5 13ZM18.5 11.2643C18.297 11.2643 18.1322 11.5943 18.1322 12C18.1322 12.4057 18.297 12.7359 18.5 12.7359C18.7028 12.7359 18.8678 12.4057 18.8678 12C18.8678 11.5943 18.7028 11.2643 18.5 11.2643Z" fill="#F8A0D4"/>
<path d="M9.4681 20.059C9.4681 19.3003 10.1555 18.6831 11.0001 18.6831C11.8448 18.6831 12.532 19.3003 12.532 20.059V21.0557H9.4681V20.059ZM13.292 21.0557V20.059C13.292 18.9238 12.2639 18 11.0001 18C9.73615 18 8.70801 18.9238 8.70801 20.059V21.0557H8V25H14V21.0557H13.292Z" fill="#404EA9"/>
<path d="M11 22.6817C11 22.3051 10.7761 22 10.5001 22C10.224 22 10 22.3051 10 22.6817C10 22.9637 10.1258 23.2057 10.3052 23.3095V23.7154C10.3052 23.8719 10.399 24 10.5139 24C10.6287 24 10.7225 23.8719 10.7225 23.7154V23.2887C10.8864 23.1769 11 22.9484 11 22.6817Z" fill="#F2E9F6"/>
<path d="M83.7407 57C83.4996 57 83.2534 56.9982 83 56.9945C83.027 56.8118 83.0531 56.6308 83.0787 56.4473C83.3043 56.4505 83.5251 56.4518 83.7407 56.4518C87.4934 56.4518 89.7389 56.0127 89.9827 55.0895C89.9827 55.089 89.9829 55.0888 89.9829 55.0885C89.9831 55.088 89.9831 55.0877 89.9833 55.0872C89.9835 55.0867 89.9835 55.0861 89.9837 55.0859C89.9837 55.0854 89.9839 55.0851 89.9839 55.0848C89.9841 55.084 89.9843 55.0835 89.9845 55.0827C89.9845 55.0825 89.9845 55.0825 89.9845 55.0822C89.9909 55.0571 89.9958 55.0317 89.9992 55.0058C89.9992 55.0058 89.9992 55.0058 89.9992 55.0055C89.9992 55.0047 89.9994 55.0039 89.9996 55.0031C89.9996 55.0029 89.9996 55.0029 89.9996 55.0026C89.9996 55.0018 89.9998 55.0008 90 55L89.909 55.8132C89.4376 56.6167 87.2472 57 83.7407 57Z" fill="#F4EDF8"/>
<path d="M82.9214 57C80.7353 56.9702 78.0956 56.8118 75.0875 56.532L75 56C78.0803 56.288 80.778 56.4497 83 56.477C82.9744 56.6524 82.9484 56.8253 82.9214 57Z" fill="white"/>
<path d="M66.8723 56C66.5834 55.9397 66.2922 55.8786 66 55.8166C66.1335 55.5912 66.2617 55.3546 66.3819 55.104C66.3984 55.0702 66.4146 55.0355 66.4311 55C66.9588 55.1114 67.4835 55.2198 68 55.3238L66.8723 56Z" fill="#3948A5"/>
<path d="M65.531 56C64.7001 55.8625 63.8576 55.7191 63 55.5691C63.1066 55.4679 63.2126 55.365 63.318 55.2603C63.2975 55.2812 63.2872 55.2911 63.2872 55.2911C63.2872 55.2911 63.4061 55.1796 63.5959 55C64.4093 55.1404 65.2111 55.2754 66 55.4042C65.8539 55.6166 65.6954 55.8136 65.531 56Z" fill="#D4BDE3"/>
<path d="M37 51C35.6595 50.7898 34.3397 50.5775 33.045 50.3643L33 50.1886C33.0215 50.1258 33.0428 50.0628 33.0641 50C34.3224 50.2072 35.6032 50.4132 36.9049 50.6177L37 51Z" fill="#4F57B0"/>
<path d="M54.6586 54C53.6353 53.8663 52.5988 53.7276 51.5506 53.5838C51.5267 53.4786 51.4916 53.3687 51.4442 53.2544C51.4355 53.2338 51.4267 53.2133 51.4178 53.1932C52.6079 53.357 53.783 53.5141 54.941 53.6647C54.9606 53.6926 54.9801 53.72 55 53.7468C54.8936 53.8324 54.7789 53.917 54.6586 54ZM46.5686 52.8747C46.0461 52.7977 45.5196 52.7191 44.9927 52.6398C42.2902 52.2331 39.6496 51.814 37.0907 51.3874L37 51C39.5874 51.432 42.2581 51.856 44.9927 52.2677C45.6381 52.3648 46.2795 52.4601 46.9185 52.5538C46.7706 52.6665 46.6532 52.7817 46.5686 52.8747Z" fill="#4652AD"/>
<path d="M51 54C50.0111 53.8097 49.012 53.6123 48 53.4074C48.0411 53.2558 48.0961 53.1205 48.1595 53C49.0782 53.1856 49.9884 53.3652 50.8881 53.5386C50.8956 53.5624 50.903 53.5865 50.9103 53.6109C50.9503 53.7459 50.9799 53.8757 51 54Z" fill="#686EBE"/>
<path d="M62.5059 55C60.1149 54.7787 57.6022 54.5259 55 54.2435C55.111 54.1798 55.2169 54.1149 55.3151 54.0494C55.3398 54.033 55.364 54.0165 55.3876 54C56.2217 54.0899 57.0456 54.1766 57.8594 54.2603C57.8464 54.3233 57.8447 54.3818 57.8566 54.4354C57.8734 54.5101 57.9793 54.5434 58.1533 54.5434C58.3813 54.5434 58.7262 54.4862 59.1408 54.3902C60.4587 54.5221 61.7457 54.6454 63 54.7599C62.8374 54.8425 62.6724 54.9226 62.5059 55Z" fill="#D4BDE3"/>
<path d="M0.0323548 46C0.00243963 45.9191 -0.00686419 45.8409 0.00499873 45.7656L0.693742 41C0.692572 41.0091 0.69164 41.0184 0.691104 41.0275V41.0277C0.691025 41.0283 0.691025 41.0287 0.690946 41.0293V41.0295C0.690946 41.0299 0.690866 41.0305 0.690866 41.0309V41.0313C0.690866 41.0317 0.690787 41.0321 0.690787 41.0326C0.690787 41.0328 0.690787 41.033 0.690787 41.0332C0.690708 41.0336 0.690707 41.034 0.690707 41.0342C0.690707 41.0346 0.690707 41.0348 0.690707 41.035C0.690628 41.0354 0.690628 41.0356 0.690628 41.036C0.690628 41.0362 0.690628 41.0364 0.690628 41.0368C0.690569 41.037 0.690569 41.0374 0.690569 41.0376C0.690569 41.038 0.690569 41.0384 0.690569 41.0386C0.690569 41.0388 0.690489 41.039 0.690489 41.0392C0.690489 41.0398 0.690489 41.04 0.690489 41.0406C0.690489 41.0406 0.690489 41.0408 0.690489 41.041C0.69041 41.0415 0.69041 41.0421 0.69041 41.0425V41.0427C0.69041 41.0433 0.69041 41.0439 0.69041 41.0443C0.69041 41.0443 0.69041 41.0445 0.69033 41.0445C0.674064 41.7804 2.59512 42.7892 6 43.9522C5.98155 44.0878 5.96411 44.2211 5.94691 44.3574C2.50577 43.1783 0.597034 42.1593 0.693742 41.4234L0.69529 41.4131C0.694734 41.4166 0.694199 41.42 0.693742 41.4234L0.0323548 46Z" fill="#F4EDF8"/>
<path d="M19 47C13.6401 46.0528 9.1923 45.1365 6 44.3183C6.01806 44.2113 6.03637 44.1066 6.05574 44C9.22069 44.8087 13.6059 45.7123 18.8829 46.6467L19 47Z" fill="white"/>
<path d="M32.8868 50C27.7971 49.1219 23.108 48.2246 19 47.3508C19.0254 47.2333 19.0512 47.1165 19.0773 47C23.197 47.875 27.8991 48.7735 33 49.6521C32.9624 49.7681 32.9246 49.884 32.8868 50Z" fill="#F576C1"/>
<path d="M65.54 56C65.3613 55.9606 65.1801 55.9206 65 55.8812C65.1815 55.6055 65.3566 55.3142 65.5178 55C65.6801 55.0352 65.8387 55.0699 66 55.1046C65.9824 55.1435 65.965 55.1816 65.9474 55.2186C65.8192 55.4933 65.6824 55.7529 65.54 56Z" fill="#372D7C"/>
<path d="M82.3855 62C81.9423 62 81.4807 61.9961 81 61.9881C81.049 61.8461 81.0977 61.7021 81.145 61.5595C81.5741 61.5661 81.9869 61.5692 82.3855 61.5692C86.6255 61.5692 89.1109 61.2017 89.2424 60.4284L89.9003 56.2082C89.9541 56.1424 89.9876 56.0728 90 56L89.2424 60.8592C89.1109 61.6325 86.6252 62 82.3855 62Z" fill="#F4EDF8"/>
<path d="M80.8869 62C79.4777 61.9566 77.8632 61.8321 76.0747 61.6304L76 61C77.8663 61.2121 79.5449 61.3408 81 61.3812C80.9632 61.587 80.9251 61.795 80.8869 62Z" fill="white"/>
<path d="M75 61C73.4562 60.8745 71.8201 60.7217 70.1038 60.5428L70 60C71.7182 60.1797 73.3561 60.3332 74.9026 60.46L75 61Z" fill="#4F57B0"/>
<path d="M70 61C68.9941 60.879 67.9521 60.7444 66.8752 60.5958L67.7626 60.253C68.4999 60.3514 69.2193 60.4427 69.9218 60.5276L70 61ZM66.0492 60.4803C65.7021 60.431 65.3536 60.3806 65 60.3286C65.3126 60.2156 65.5913 60.1057 65.8268 60L65.8785 60.3306L66.0492 60.4803Z" fill="#4652AD"/>
<path d="M65.0031 60C61.3206 59.5772 57.3429 59.0573 53.1581 58.4466C53.1054 58.2978 53.0527 58.1487 53 58C57.6242 58.6766 61.9962 59.2424 66 59.6893C65.9906 59.6927 65.9809 59.6962 65.9713 59.6994C65.6955 59.7961 65.3691 59.8966 65.0031 60Z" fill="#D4BDE3"/>
<path d="M34 56C33.6906 55.8895 33.3833 55.7794 33.0772 55.6686L33 55C33.306 55.1108 33.6137 55.2215 33.9228 55.3317L34 56Z" fill="#6E72C0"/>
<path d="M38 56C36.6797 55.7963 35.3768 55.5904 34.0975 55.3834L34 55C35.2811 55.2075 36.583 55.4136 37.9055 55.6178L38 56Z" fill="#4F57B0"/>
<path d="M40.9777 57C39.9987 56.8066 39.0319 56.6115 38.0765 56.4144L38 56C39.311 56.2708 40.6457 56.5384 42 56.8019C41.6614 56.8673 41.3204 56.9336 40.9777 57Z" fill="#4652AD"/>
<path d="M5.99437 49C2.06283 47.8606 -0.122663 46.8761 0.00532231 46.1741L0.0344896 46C0.325571 46.6822 2.45356 47.584 6 48.6115C5.99736 48.7408 5.99554 48.8704 5.99437 49Z" fill="#F4EDF8"/>
<path d="M17.947 52C13.0733 50.7522 8.99414 49.5433 6 48.4553C6.00109 48.3034 6.00279 48.1515 6.00526 48C9.01004 49.0917 13.1046 50.3044 18 51.5565C17.982 51.7038 17.9644 51.852 17.947 52Z" fill="white"/>
<path d="M53 59C52.0431 58.8594 51.0755 58.714 50.0983 58.5641C50.0605 58.4193 50.0227 58.2747 49.9846 58.1301C50.9483 58.2783 51.9008 58.4217 52.8446 58.5607C52.8964 58.7071 52.9482 58.8534 53 59ZM49.7561 58.5114C47.9463 58.2322 46.103 57.9366 44.2353 57.6258C43.2955 57.4693 42.3628 57.3112 41.4385 57.1517C41.8483 57.0823 42.2559 57.0131 42.6607 56.9447C43.1829 57.0334 43.7083 57.1217 44.2353 57.2094C46.0646 57.5138 47.868 57.8032 49.6417 58.0772C49.6803 58.222 49.7183 58.3666 49.7561 58.5114ZM31.3471 55.2929C26.4643 54.3335 21.9623 53.3565 18 52.4041C18.0169 52.2693 18.034 52.1342 18.0514 52C22.0293 52.9554 26.552 53.9356 31.4533 54.8973C31.4173 55.0288 31.3818 55.1606 31.3471 55.2929Z" fill="#F576C1"/>
<path d="M82.1335 61C81.7693 61 81.3921 60.9971 81 60.991C81.4374 59.6464 81.8005 58.2694 82.0846 56.8658C82.3382 56.8685 82.5847 56.8698 82.826 56.8698C86.3357 56.8698 88.5281 56.5889 89 56L88.3988 59.936C88.2787 60.6573 86.0077 61 82.1335 61Z" fill="#F6F1F9"/>
<path d="M81.8951 61C80.1582 60.9709 78.1543 60.8783 75.9265 60.7255L75 56C78.0718 56.2392 80.7676 56.3747 83 56.4001C82.7106 57.9653 82.3408 59.5007 81.8951 61Z" fill="white"/>
<path d="M76 61C75.6373 60.9744 75.2706 60.9472 74.8958 60.9182L74.0079 56.2657C74.3812 56.2978 74.7518 56.3285 75.1143 56.3575L76 61ZM33.6823 54.8817C33.3005 54.806 32.9204 54.7299 32.5424 54.6538L32 52.0394C32.1966 51.3611 32.3884 50.6809 32.5771 50C32.6098 50.0067 32.6407 50.0128 32.6736 50.0195L33.6823 54.8817Z" fill="#8886CB"/>
<path d="M75 61C73.6538 60.9038 72.2279 60.7873 70.7321 60.6509L70.5331 59.7419L73.2263 58.9569L72.7426 56.6177C73.209 56.6576 73.6659 56.6954 74.1168 56.7311L75 61ZM37.8026 56.1399C36.5161 55.9156 35.2497 55.6892 34.0034 55.4612L33 51C34.2536 51.2343 35.5314 51.4677 36.8293 51.6988L37.8026 56.1399Z" fill="#5D62B7"/>
<path d="M33 55C32.3299 54.9368 31.6619 54.8731 31 54.8096C31.0243 54.7636 31.049 54.7175 31.0742 54.6713C31.3425 54.1773 31.684 53.6936 31.988 53.2052C32.0306 53.1368 32.073 53.0685 32.1153 53L33 55Z" fill="#3E2E92"/>
<path d="M70 60C69.2096 59.9255 68.4 59.8455 67.5703 59.7592L69.8062 59.0861L70 60ZM63.9301 56.4449C64.0655 56.3584 64.2 56.2706 64.3336 56.181C64.4465 56.1054 64.5603 56.0294 64.674 55.952L64.7413 56.2878C64.3827 56.3489 64.0571 56.4174 63.9301 56.4449ZM42.6233 56.2818C41.0402 56.0135 39.4799 55.7408 37.9474 55.4649L37 51C39.5309 51.4654 42.1425 51.9224 44.8155 52.3661C45.3366 52.4526 45.8573 52.5383 46.374 52.6222C46.2714 52.7465 46.218 52.834 46.218 52.834C45.5977 54.1283 46.6884 55.183 46.6884 55.183C47.0292 55.2883 47.3357 55.372 47.6105 55.4383C46.1535 55.6848 44.4244 55.9774 42.6233 56.2818ZM48.4094 55.303C48.1072 55.0631 47.8476 54.6588 47.7559 53.984C47.781 54.0899 47.8135 54.2006 47.8538 54.3156C48.0144 54.7723 48.2151 55.0868 48.4312 55.2993C48.4242 55.3005 48.4164 55.3018 48.4094 55.303ZM51.9788 55.233C51.8989 55.0077 51.819 54.7827 51.739 54.5574C51.7122 54.4816 51.649 54.4486 51.5867 54.4486C51.4918 54.4486 51.399 54.5254 51.4406 54.6427C51.4569 54.6889 51.4734 54.7352 51.4898 54.7814C51.3637 54.8027 51.1842 54.8332 50.9578 54.8715C51.2257 54.5285 51.4344 54.0391 51.3014 53.3957C52.3382 53.5526 53.3633 53.7038 54.3754 53.8497C53.6334 54.4151 52.6659 54.9216 51.9788 55.233Z" fill="#4D57B0"/>
<path d="M47.3293 56C47.0986 55.9294 46.8413 55.8401 46.5551 55.7279C46.5551 55.7279 45.6394 54.6044 46.1602 53.2256C46.1602 53.2256 46.2051 53.1324 46.2912 53C46.6865 53.0814 47.08 53.1617 47.4721 53.2411C47.3844 53.5643 47.3603 53.9626 47.4513 54.4507C47.5284 55.1696 47.7463 55.6003 48 55.8558C47.7852 55.9021 47.5616 55.95 47.3293 56Z" fill="#3F4DA9"/>
<path d="M48.6106 56C48.4332 55.7399 48.2685 55.3549 48.1367 54.7959C48.1036 54.6551 48.077 54.5196 48.0564 54.39C47.9674 53.8291 47.991 53.3715 48.0767 53C49.0515 53.2317 50.0138 53.4548 50.9662 53.6698C51.0753 54.4574 50.904 55.0565 50.6842 55.4764C50.2128 55.5955 49.4937 55.7771 48.6106 56Z" fill="#8281C9"/>
<path d="M66.5351 60C66.3352 59.9837 66.1346 59.9671 65.933 59.9502C66.1414 59.8956 66.3242 59.8424 66.4791 59.791L66.5351 60ZM65.0842 56.9273L65 56.6139C65.3736 56.4243 65.7446 56.2253 66.0818 56C66.3894 56.0259 66.6959 56.0514 67 56.0765L65.5728 56.416L65.6918 56.8591C65.4933 56.8777 65.2846 56.9018 65.0842 56.9273Z" fill="#3F4DA9"/>
<path d="M67.6738 60C67.073 59.9482 66.462 59.8938 65.8435 59.8374L65.7943 59.633C66.0304 59.5456 66.1911 59.4638 66.2598 59.3893C66.8793 58.7181 66.3268 58.3573 66.0529 58.2309C66.1637 58.1787 66.1359 58.0642 66.0512 58.0064C66.4025 57.4693 66.2719 56.8827 65.9391 56.76C65.8809 56.7385 65.7832 56.7294 65.66 56.7294C65.5058 56.7294 65.3114 56.7438 65.1043 56.7654L65 56.332L66.2509 56C68.4408 56.2017 70.5249 56.3753 72.4837 56.5194L73 58.6655L70.1255 59.3858L67.6738 60Z" fill="#8281C9"/>
<path d="M65.8475 60C61.8838 59.5474 57.5557 58.9743 52.9778 58.2888C52.8296 57.8604 52.6816 57.4323 52.5334 57.0041C52.6893 56.958 52.6735 56.6746 52.4854 56.6719C52.463 56.6715 52.4406 56.6713 52.4182 56.6711C52.2789 56.2681 52.1393 55.8648 52 55.4618C52.7079 55.1327 53.7046 54.5975 54.4691 54C57.3413 54.4244 60.1148 54.8042 62.754 55.1368C62.5378 55.2737 62.3192 55.4054 62.0989 55.5321C61.9451 55.6208 62.0394 55.8462 62.1826 55.8462C62.2073 55.8462 62.2334 55.8396 62.2599 55.8243C62.6004 55.6284 62.9343 55.4204 63.2609 55.2003C64.0302 55.296 64.786 55.3874 65.5314 55.4751C65.2767 55.6804 65.0061 55.865 64.7501 56.0445C64.1019 56.499 63.4321 56.9178 62.7449 57.3026C62.5896 57.3895 62.685 57.6159 62.8294 57.6159C62.8539 57.6159 62.8796 57.6094 62.9059 57.5948C63.3838 57.3272 63.8532 57.0434 64.3127 56.7424C64.4436 56.7133 64.779 56.641 65.1485 56.5765C65.3136 56.5476 65.4854 56.5203 65.6488 56.4992C65.8434 56.4742 66.0261 56.4576 66.171 56.4576C66.2868 56.4576 66.3785 56.4681 66.4332 56.4931C66.7459 56.6351 66.8686 57.3143 66.5386 57.9362C66.5094 57.9118 66.473 57.896 66.4332 57.896C66.411 57.896 66.3878 57.901 66.3642 57.912C65.5797 58.2749 64.7319 58.4563 63.8793 58.4563C63.6998 58.4563 63.5204 58.4483 63.3411 58.4323C63.3357 58.4317 63.3305 58.4315 63.3252 58.4315C63.1368 58.4315 63.1432 58.7525 63.3411 58.7704C63.5214 58.7866 63.7019 58.7945 63.8818 58.7945C64.7904 58.7945 65.689 58.5909 66.5254 58.2038C66.5306 58.2016 66.5355 58.1989 66.5401 58.1962C66.7975 58.3425 67.3166 58.7603 66.7345 59.5375C66.67 59.6238 66.519 59.7185 66.2972 59.8197C66.1696 59.8779 66.0191 59.9381 65.8475 60Z" fill="#DCC6E7"/>
<path d="M5.72992 48C2.91802 46.9464 1.23079 46.0217 1 45.3221L1.55912 41C1.47736 41.695 3.09096 42.6573 6 43.7709C5.84377 45.1579 5.75239 46.5707 5.72992 48Z" fill="#F6F1F9"/>
<path d="M18.2947 52C13.2769 50.806 9.07993 49.6497 6 48.6087C6.02715 47.0512 6.13755 45.5115 6.3263 44C9.43141 45.072 13.7578 46.2726 18.9712 47.5136L19 47.6312C18.7295 49.0379 18.4919 50.4966 18.2947 52Z" fill="white"/>
<path d="M53 58C52.0506 57.8589 51.0924 57.7133 50.1229 57.5629C50.0672 57.3496 50.0104 57.1364 49.9524 56.9236C50.8034 56.8352 51.6577 56.7908 52.5125 56.7908C52.5338 56.7908 52.555 56.7908 52.576 56.7908C52.7175 57.1939 52.8587 57.5969 53 58ZM49.7781 57.5092C47.9939 57.2311 46.1797 56.9373 44.3395 56.6283C43.8094 56.5393 43.2808 56.4496 42.7556 56.3596C44.6085 56.0426 46.3873 55.738 47.8864 55.4814C48.171 55.4326 48.445 55.3858 48.7082 55.3405C48.7154 55.3393 48.7235 55.3379 48.7306 55.3367C49.8377 55.1471 50.7391 54.9927 51.33 54.8914C51.5629 54.8514 51.7476 54.8197 51.8773 54.7975C52.0712 55.3508 52.2652 55.9042 52.4593 56.4575C51.5996 56.4595 50.7407 56.5061 49.8852 56.5976C49.8775 56.5984 49.8701 56.5996 49.863 56.6012C49.7617 56.2411 49.6554 55.8826 49.5407 55.5265C49.5149 55.4461 49.4508 55.4114 49.3871 55.4114C49.2901 55.4114 49.1938 55.4917 49.2335 55.6149C49.4348 56.2405 49.6106 56.8736 49.7781 57.5092ZM31.4816 54.2813C26.5511 53.3051 22.0015 52.31 18 51.3402C18.1878 49.8819 18.4141 48.467 18.6717 47.1026C18.6783 47.0686 18.6849 47.0339 18.6912 47C22.8423 48.0055 27.5806 49.0381 32.7236 50.0487C32.5765 50.5612 32.4276 51.0734 32.2759 51.5843C32.0082 52.4857 31.7282 53.3769 31.4816 54.2813Z" fill="#F689CA"/>
<path d="M31.3877 55C31.2574 54.9767 31.1298 54.9539 31 54.9306C31.3166 53.8771 31.676 52.8389 32.0196 51.7889C32.2143 51.1937 32.4055 50.5971 32.5943 50C32.7283 50.0238 32.8655 50.0482 33 50.0722C32.7587 50.8339 32.5135 51.5949 32.2621 52.3537C32.2289 52.4539 32.1957 52.5538 32.1623 52.6538C31.924 53.368 31.6562 54.0753 31.4459 54.7978C31.4261 54.8653 31.4067 54.9327 31.3877 55Z" fill="#3E2E92"/>
<path d="M53 58C52.8464 57.9854 52.6906 57.9706 52.5368 57.9559C52.3534 57.6202 52.17 57.2846 51.9864 56.9488C52.1117 56.9489 52.2367 56.9496 52.3617 56.9508C52.3629 56.9508 52.3639 56.9508 52.3649 56.9508C52.3865 56.9508 52.406 56.9491 52.4238 56.9457C52.616 57.2972 52.8079 57.6484 53 58ZM52.2745 56.6725C52.1528 56.6715 52.031 56.6712 51.909 56.6712C51.8845 56.6712 51.8596 56.6712 51.8348 56.6712C51.5828 56.2103 51.3311 55.7494 51.0793 55.2885C51.0575 55.2485 51.0355 55.2083 51.0137 55.1683C50.958 55.0666 51.082 55 51.2088 55C51.292 55 51.3764 55.0286 51.4122 55.0943C51.5189 55.2897 51.6257 55.4848 51.7324 55.6801C51.913 56.0109 52.0939 56.3418 52.2745 56.6725Z" fill="#3E2E92"/>
<path d="M50 58C49.8735 57.9837 49.7432 57.9668 49.6162 57.9501C49.4298 57.3592 49.2342 56.7707 49.0102 56.1892C48.966 56.0747 49.0731 56 49.1812 56C49.252 56 49.3233 56.0323 49.3521 56.107C49.4797 56.438 49.598 56.7713 49.7107 57.106C49.5175 57.1443 49.5168 57.4132 49.7146 57.4132C49.7213 57.4132 49.7283 57.4128 49.7354 57.4123C49.7603 57.41 49.7853 57.4078 49.8102 57.4057C49.8748 57.6035 49.9379 57.8017 50 58Z" fill="#3E2E92"/>
<path d="M62.1311 56C62.0157 56 61.9397 55.6823 62.0636 55.5572C62.2412 55.3787 62.4173 55.193 62.5915 55C62.7283 55.03 62.8641 55.0598 63 55.0895C62.7368 55.3998 62.4677 55.693 62.1933 55.9691C62.172 55.9908 62.151 56 62.1311 56Z" fill="#3E2E92"/>
<path d="M63.149 58C63.018 58 62.9313 57.7885 63.0724 57.7073C63.6962 57.3478 64.3042 56.9565 64.8926 56.532C65.125 56.3643 65.3706 56.1918 65.6018 56C65.7346 56.0159 65.8683 56.032 66 56.0479C65.7479 56.2862 65.4706 56.4967 65.1913 56.6974C65.085 56.7737 64.9785 56.8488 64.8729 56.9234C64.748 57.0119 64.6222 57.0986 64.4956 57.184C64.0784 57.4652 63.6523 57.7303 63.2185 57.9803C63.1946 57.9939 63.1713 58 63.149 58Z" fill="#3E2E92"/>
<path d="M63.6083 59C63.4506 59 63.2922 58.9911 63.1341 58.9731C62.9605 58.9533 62.955 58.5959 63.1202 58.5959C63.1248 58.5959 63.1294 58.5961 63.1341 58.5968C63.2914 58.6146 63.4487 58.6235 63.6061 58.6235C64.354 58.6235 65.0975 58.4217 65.7857 58.0178C65.8063 58.0055 65.8267 58 65.8462 58C65.8811 58 65.9129 58.0176 65.9385 58.0447C66.0084 58.1193 66.0313 58.2668 65.9399 58.3341C65.9358 58.3371 65.9316 58.34 65.927 58.3425C65.1934 58.7733 64.4053 59 63.6083 59Z" fill="#3E2E92"/>
<path d="M76.6597 72.8203H76.9374V72.5164H76.6597V72.8203Z" fill="#CAB0DE"/>
<path d="M77.8234 75.4339C78.1859 75.4339 78.4782 75.3018 78.6693 75.0629L78.3152 74.7426C78.1916 74.8915 78.0398 74.973 77.8515 74.973C77.5284 74.973 77.3036 74.7482 77.3036 74.411C77.3036 74.0738 77.5284 73.849 77.8515 73.849C78.0398 73.849 78.1916 73.9305 78.3152 74.0794L78.6693 73.759C78.4782 73.5202 78.1859 73.3881 77.8234 73.3881C77.1996 73.3881 76.7415 73.8124 76.7415 74.411C76.7415 75.0095 77.1996 75.4339 77.8234 75.4339Z" fill="#EAD9EF"/>
<path d="M76.5 73C76.2241 73 76 72.7756 76 72.5C76 72.2241 76.2241 72 76.5 72C76.7756 72 77 72.2241 77 72.5C77 72.7756 76.7756 73 76.5 73ZM76.5 72.1319C76.2971 72.1319 76.1319 72.2971 76.1319 72.5C76.1319 72.7029 76.2971 72.8681 76.5 72.8681C76.7028 72.8681 76.8681 72.7029 76.8681 72.5C76.8681 72.2971 76.7028 72.1319 76.5 72.1319Z" fill="#EAD9EF"/>
<path d="M76.6597 74.5391H76.9374V74.235H76.6597V74.5391Z" fill="#CAB0DE"/>
<path d="M77.8234 77.1565C78.1859 77.1565 78.4782 77.0245 78.6693 76.7856L78.3152 76.4652C78.1916 76.6142 78.0398 76.6957 77.8515 76.6957C77.5284 76.6957 77.3036 76.4709 77.3036 76.1336C77.3036 75.7964 77.5284 75.5716 77.8515 75.5716C78.0398 75.5716 78.1916 75.6531 78.3152 75.8021L78.6693 75.4817C78.4782 75.2428 78.1859 75.1108 77.8234 75.1108C77.1996 75.1108 76.7415 75.5351 76.7415 76.1336C76.7415 76.7322 77.1996 77.1565 77.8234 77.1565Z" fill="#EAD9EF"/>
<path d="M76.5 75C76.2241 75 76 74.7755 76 74.5C76 74.2242 76.2241 74 76.5 74C76.7756 74 77 74.2242 77 74.5C77 74.7755 76.7756 75 76.5 75ZM76.5 74.1321C76.2971 74.1321 76.1319 74.297 76.1319 74.5C76.1319 74.7027 76.2971 74.8679 76.5 74.8679C76.7028 74.8679 76.8681 74.7027 76.8681 74.5C76.8681 74.297 76.7028 74.1321 76.5 74.1321Z" fill="#EAD9EF"/>
<path d="M76.6597 76.6719H76.9374V76.3678H76.6597V76.6719Z" fill="#CAB0DE"/>
<path d="M77.8234 79.2893C78.1859 79.2893 78.4782 79.1573 78.6693 78.9184L78.3152 78.5981C78.1916 78.747 78.0398 78.8285 77.8515 78.8285C77.5284 78.8285 77.3036 78.6037 77.3036 78.2665C77.3036 77.9292 77.5284 77.7044 77.8515 77.7044C78.0398 77.7044 78.1916 77.7859 78.3152 77.9349L78.6693 77.6145C78.4782 77.3756 78.1859 77.2436 77.8234 77.2436C77.1996 77.2436 76.7415 77.6679 76.7415 78.2665C76.7415 78.865 77.1996 79.2893 77.8234 79.2893Z" fill="#EAD9EF"/>
<path d="M76.5 77C76.2241 77 76 76.7757 76 76.5002C76 76.2243 76.2241 76 76.5 76C76.7756 76 77 76.2243 77 76.5002C77 76.7757 76.7756 77 76.5 77ZM76.5 76.1322C76.2971 76.1322 76.1319 76.2971 76.1319 76.5002C76.1319 76.703 76.2971 76.8682 76.5 76.8682C76.7028 76.8682 76.8681 76.703 76.8681 76.5002C76.8681 76.2971 76.7028 76.1322 76.5 76.1322Z" fill="#EAD9EF"/>
<path d="M76.6597 78.6016H76.9374V78.2975H76.6597V78.6016Z" fill="#CAB0DE"/>
<path d="M77.8234 81.219C78.1859 81.219 78.4782 81.087 78.6693 80.8481L78.3152 80.5277C78.1916 80.6767 78.0398 80.7582 77.8515 80.7582C77.5284 80.7582 77.3036 80.5334 77.3036 80.1961C77.3036 79.8589 77.5284 79.6341 77.8515 79.6341C78.0398 79.6341 78.1916 79.7156 78.3152 79.8646L78.6693 79.5442C78.4782 79.3053 78.1859 79.1733 77.8234 79.1733C77.1996 79.1733 76.7415 79.5976 76.7415 80.1961C76.7415 80.7947 77.1996 81.219 77.8234 81.219Z" fill="#EAD9EF"/>
<path d="M76.5 79C76.2241 79 76 78.7757 76 78.5C76 78.2242 76.2241 78 76.5 78C76.7756 78 77 78.2242 77 78.5C77 78.7757 76.7756 79 76.5 79ZM76.5 78.1321C76.2971 78.1321 76.1319 78.2972 76.1319 78.5C76.1319 78.703 76.2971 78.8675 76.5 78.8675C76.7028 78.8675 76.8681 78.703 76.8681 78.5C76.8681 78.2972 76.7028 78.1321 76.5 78.1321Z" fill="#EAD9EF"/>
<path d="M74.9736 72.8203H75.2514V72.5164H74.9736V72.8203Z" fill="#CAB0DE"/>
<path d="M76.1374 75.4339C76.4999 75.4339 76.7922 75.3018 76.9832 75.0629L76.6292 74.7426C76.5055 74.8915 76.3538 74.973 76.1655 74.973C75.8423 74.973 75.6175 74.7482 75.6175 74.411C75.6175 74.0738 75.8423 73.849 76.1655 73.849C76.3538 73.849 76.5055 73.9305 76.6292 74.0794L76.9832 73.759C76.7922 73.5202 76.4999 73.3881 76.1374 73.3881C75.5136 73.3881 75.0555 73.8124 75.0555 74.411C75.0555 75.0095 75.5136 75.4339 76.1374 75.4339Z" fill="#EAD9EF"/>
<path d="M74.9736 74.5391H75.2514V74.235H74.9736V74.5391Z" fill="#CAB0DE"/>
<path d="M76.1374 77.1565C76.4999 77.1565 76.7922 77.0245 76.9832 76.7856L76.6292 76.4652C76.5055 76.6142 76.3538 76.6957 76.1655 76.6957C75.8423 76.6957 75.6175 76.4709 75.6175 76.1336C75.6175 75.7964 75.8423 75.5716 76.1655 75.5716C76.3538 75.5716 76.5055 75.6531 76.6292 75.8021L76.9832 75.4817C76.7922 75.2428 76.4999 75.1108 76.1374 75.1108C75.5136 75.1108 75.0555 75.5351 75.0555 76.1336C75.0555 76.7322 75.5136 77.1565 76.1374 77.1565Z" fill="#EAD9EF"/>
<path d="M74.9736 76.6719H75.2514V76.3678H74.9736V76.6719Z" fill="#CAB0DE"/>
<path d="M76.1374 79.2893C76.4999 79.2893 76.7922 79.1573 76.9832 78.9184L76.6292 78.5981C76.5055 78.747 76.3538 78.8285 76.1655 78.8285C75.8423 78.8285 75.6175 78.6037 75.6175 78.2665C75.6175 77.9292 75.8423 77.7044 76.1655 77.7044C76.3538 77.7044 76.5055 77.7859 76.6292 77.9349L76.9832 77.6145C76.7922 77.3756 76.4999 77.2436 76.1374 77.2436C75.5136 77.2436 75.0555 77.6679 75.0555 78.2665C75.0555 78.865 75.5136 79.2893 76.1374 79.2893Z" fill="#EAD9EF"/>
<path d="M74.9736 78.6016H75.2514V78.2975H74.9736V78.6016Z" fill="#CAB0DE"/>
<path d="M76.1374 81.219C76.4999 81.219 76.7922 81.087 76.9832 80.8481L76.6292 80.5277C76.5055 80.6767 76.3538 80.7582 76.1655 80.7582C75.8423 80.7582 75.6175 80.5334 75.6175 80.1961C75.6175 79.8589 75.8423 79.6341 76.1655 79.6341C76.3538 79.6341 76.5055 79.7156 76.6292 79.8646L76.9832 79.5442C76.7922 79.3053 76.4999 79.1733 76.1374 79.1733C75.5136 79.1733 75.0555 79.5976 75.0555 80.1961C75.0555 80.7947 75.5136 81.219 76.1374 81.219Z" fill="#EAD9EF"/>
<path d="M78.7241 72.8203H79.0023V72.5164H78.7241V72.8203Z" fill="#CAB0DE"/>
<path d="M79.8879 75.4339C80.2504 75.4339 80.5426 75.3018 80.7337 75.0629L80.3797 74.7426C80.256 74.8915 80.1043 74.973 79.916 74.973C79.5928 74.973 79.368 74.7482 79.368 74.411C79.368 74.0738 79.5928 73.849 79.916 73.849C80.1043 73.849 80.256 73.9305 80.3797 74.0794L80.7337 73.759C80.5426 73.5202 80.2504 73.3881 79.8879 73.3881C79.264 73.3881 78.806 73.8124 78.806 74.411C78.806 75.0095 79.264 75.4339 79.8879 75.4339Z" fill="#EAD9EF"/>
<path d="M78.7241 74.5391H79.0023V74.235H78.7241V74.5391Z" fill="#CAB0DE"/>
<path d="M79.8879 77.1565C80.2504 77.1565 80.5426 77.0245 80.7337 76.7856L80.3797 76.4652C80.256 76.6142 80.1043 76.6957 79.916 76.6957C79.5928 76.6957 79.368 76.4709 79.368 76.1336C79.368 75.7964 79.5928 75.5716 79.916 75.5716C80.1043 75.5716 80.256 75.6531 80.3797 75.8021L80.7337 75.4817C80.5426 75.2428 80.2504 75.1108 79.8879 75.1108C79.264 75.1108 78.806 75.5351 78.806 76.1336C78.806 76.7322 79.264 77.1565 79.8879 77.1565Z" fill="#EAD9EF"/>
<path d="M78.7241 76.6719H79.0023V76.3678H78.7241V76.6719Z" fill="#CAB0DE"/>
<path d="M79.8879 79.2893C80.2504 79.2893 80.5426 79.1573 80.7337 78.9184L80.3797 78.5981C80.256 78.747 80.1043 78.8285 79.916 78.8285C79.5928 78.8285 79.368 78.6037 79.368 78.2665C79.368 77.9292 79.5928 77.7044 79.916 77.7044C80.1043 77.7044 80.256 77.7859 80.3797 77.9349L80.7337 77.6145C80.5426 77.3756 80.2504 77.2436 79.8879 77.2436C79.264 77.2436 78.806 77.6679 78.806 78.2665C78.806 78.865 79.264 79.2893 79.8879 79.2893Z" fill="#EAD9EF"/>
<path d="M78.7241 78.6016H79.0023V78.2975H78.7241V78.6016Z" fill="#CAB0DE"/>
<path d="M79.8879 81.219C80.2504 81.219 80.5426 81.087 80.7337 80.8481L80.3797 80.5277C80.256 80.6767 80.1043 80.7582 79.916 80.7582C79.5928 80.7582 79.368 80.5334 79.368 80.1961C79.368 79.8589 79.5928 79.6341 79.916 79.6341C80.1043 79.6341 80.256 79.7156 80.3797 79.8646L80.7337 79.5442C80.5426 79.3053 80.2504 79.1733 79.8879 79.1733C79.264 79.1733 78.806 79.5976 78.806 80.1961C78.806 80.7947 79.264 81.219 79.8879 81.219Z" fill="#EAD9EF"/>
<path d="M80.7896 72.8203H81.0676V72.5164H80.7896V72.8203Z" fill="#CAB0DE"/>
<path d="M81.9528 75.4339C82.3153 75.4339 82.6076 75.3018 82.7987 75.0629L82.4446 74.7426C82.321 74.8915 82.1692 74.973 81.9809 74.973C81.6578 74.973 81.433 74.7482 81.433 74.411C81.433 74.0738 81.6578 73.849 81.9809 73.849C82.1692 73.849 82.321 73.9305 82.4446 74.0794L82.7987 73.759C82.6076 73.5202 82.3153 73.3881 81.9528 73.3881C81.329 73.3881 80.8709 73.8124 80.8709 74.411C80.8709 75.0095 81.329 75.4339 81.9528 75.4339Z" fill="#EAD9EF"/>
<path d="M80.4999 73C80.224 73 80 72.7756 80 72.5C80 72.2241 80.224 72 80.4999 72C80.7757 72 81 72.2241 81 72.5C81 72.7756 80.7757 73 80.4999 73ZM80.4999 72.1319C80.2971 72.1319 80.1322 72.2971 80.1322 72.5C80.1322 72.7029 80.2971 72.8681 80.4999 72.8681C80.7026 72.8681 80.8678 72.7029 80.8678 72.5C80.8678 72.2971 80.7026 72.1319 80.4999 72.1319Z" fill="#EAD9EF"/>
<path d="M80.7896 74.5391H81.0676V74.235H80.7896V74.5391Z" fill="#CAB0DE"/>
<path d="M81.9528 77.1565C82.3153 77.1565 82.6076 77.0245 82.7987 76.7856L82.4446 76.4652C82.321 76.6142 82.1692 76.6957 81.9809 76.6957C81.6578 76.6957 81.433 76.4709 81.433 76.1336C81.433 75.7964 81.6578 75.5716 81.9809 75.5716C82.1692 75.5716 82.321 75.6531 82.4446 75.8021L82.7987 75.4817C82.6076 75.2428 82.3153 75.1108 81.9528 75.1108C81.329 75.1108 80.8709 75.5351 80.8709 76.1336C80.8709 76.7322 81.329 77.1565 81.9528 77.1565Z" fill="#EAD9EF"/>
<path d="M80.4999 75C80.224 75 80 74.7755 80 74.5C80 74.2242 80.224 74 80.4999 74C80.7757 74 81 74.2242 81 74.5C81 74.7755 80.7757 75 80.4999 75ZM80.4999 74.1321C80.2971 74.1321 80.1322 74.297 80.1322 74.5C80.1322 74.7027 80.2971 74.8679 80.4999 74.8679C80.7026 74.8679 80.8678 74.7027 80.8678 74.5C80.8678 74.297 80.7026 74.1321 80.4999 74.1321Z" fill="#EAD9EF"/>
<path d="M80.7896 76.6719H81.0676V76.3678H80.7896V76.6719Z" fill="#CAB0DE"/>
<path d="M81.9528 79.2893C82.3153 79.2893 82.6076 79.1573 82.7987 78.9184L82.4446 78.5981C82.321 78.747 82.1692 78.8285 81.9809 78.8285C81.6578 78.8285 81.433 78.6037 81.433 78.2665C81.433 77.9292 81.6578 77.7044 81.9809 77.7044C82.1692 77.7044 82.321 77.7859 82.4446 77.9349L82.7987 77.6145C82.6076 77.3756 82.3153 77.2436 81.9528 77.2436C81.329 77.2436 80.8709 77.6679 80.8709 78.2665C80.8709 78.865 81.329 79.2893 81.9528 79.2893Z" fill="#EAD9EF"/>
<path d="M80.4999 77C80.224 77 80 76.7757 80 76.5002C80 76.2243 80.224 76 80.4999 76C80.7757 76 81 76.2243 81 76.5002C81 76.7757 80.7757 77 80.4999 77ZM80.4999 76.1322C80.2971 76.1322 80.1322 76.2971 80.1322 76.5002C80.1322 76.703 80.2971 76.8682 80.4999 76.8682C80.7026 76.8682 80.8678 76.703 80.8678 76.5002C80.8678 76.2971 80.7026 76.1322 80.4999 76.1322Z" fill="#EAD9EF"/>
<path d="M80.7896 78.6016H81.0676V78.2975H80.7896V78.6016Z" fill="#CAB0DE"/>
<path d="M81.9528 81.219C82.3153 81.219 82.6076 81.087 82.7987 80.8481L82.4446 80.5277C82.321 80.6767 82.1692 80.7582 81.9809 80.7582C81.6578 80.7582 81.433 80.5334 81.433 80.1961C81.433 79.8589 81.6578 79.6341 81.9809 79.6341C82.1692 79.6341 82.321 79.7156 82.4446 79.8646L82.7987 79.5442C82.6076 79.3053 82.3153 79.1733 81.9528 79.1733C81.329 79.1733 80.8709 79.5976 80.8709 80.1961C80.8709 80.7947 81.329 81.219 81.9528 81.219Z" fill="#EAD9EF"/>
<path d="M80.4999 79C80.224 79 80 78.7757 80 78.5C80 78.2242 80.224 78 80.4999 78C80.7757 78 81 78.2242 81 78.5C81 78.7757 80.7757 79 80.4999 79ZM80.4999 78.1321C80.2971 78.1321 80.1322 78.2972 80.1322 78.5C80.1322 78.703 80.2971 78.8675 80.4999 78.8675C80.7026 78.8675 80.8678 78.703 80.8678 78.5C80.8678 78.2972 80.7026 78.1321 80.4999 78.1321Z" fill="#EAD9EF"/>
<path d="M3.08609 74.7078C2.42386 79.6387 5.65393 84.2058 10.3007 84.9086C14.9476 85.6116 19.2517 82.1841 19.9139 77.2532C20.4473 73.2827 18.4559 69.5498 15.2344 67.8786C14.4755 64.4554 13.5681 60 13.5681 60L10.0434 67.0951C6.51208 67.7462 3.61922 70.739 3.08609 74.7078Z" fill="#FCD295"/>
<path d="M8 80H16V69H8V80Z" fill="#CAB0DE"/>
<path d="M8 81H17V70H8V81Z" fill="white"/>
<path d="M10 74H12V73H10V74Z" fill="#CAB0DE"/>
<path d="M10 75H12V74H10V75Z" fill="#CAB0DE"/>
<path d="M10 76H12V75H10V76Z" fill="#CAB0DE"/>
<path d="M12 80H10V79H12V80Z" fill="#CAB0DE"/>
<path d="M15 74H13V73H15V74Z" fill="#CAB0DE"/>
<path d="M15 75H13V74H15V75Z" fill="#CAB0DE"/>
<path d="M15 76H13V75H15V76Z" fill="#CAB0DE"/>
<path d="M15 80H13V79H15V80Z" fill="#CAB0DE"/>
<path d="M8 77C7.03687 76.7055 6.29954 76.1555 6 75.4864L8 75V77Z" fill="#F5EE9D"/>
<path d="M8.51469 78C8.33827 78 8.16606 77.9793 8 77.94V75.177L9.18338 74.6724V74.9591H10.9909C10.997 75.0388 11 75.1193 11 75.2006C11 75.3784 10.9853 75.5523 10.9571 75.7211H9.18338V76.2764H10.8099C10.7063 76.5563 10.5637 76.8132 10.3896 77.0383H9.18338V77.5935H9.8053C9.42913 77.8515 8.98732 78 8.51469 78ZM10.8979 74.404H9.81286L10.7604 74C10.8151 74.1294 10.8612 74.2645 10.8979 74.404Z" fill="white"/>
<path d="M11 75H10V74.4836L10.3483 74H10.9486C10.9745 74.3213 10.992 74.6557 11 75Z" fill="#EBDBF0"/>
<path d="M10.917 76H10V75H11C10.9819 75.3472 10.9538 75.6819 10.917 76Z" fill="#EBDBF0"/>
<path d="M6.04742 76C6.04742 76 5.51761 73.8888 8 73V73.0024C6.979 73.3959 6.27324 74.2393 6.27324 75.2161C6.27324 75.4515 6.3142 75.6792 6.39075 75.8948L6.04742 76Z" fill="#F5EE98"/>
<path d="M11 73H10.7505C10.1908 72.4074 9.45996 72.0488 8.66027 72.0488C8.43395 72.0488 8.21303 72.0775 8 72.132V72.1236C8.28847 72.0377 8.56213 72 8.82072 72C9.75231 72 10.4874 72.4904 11 73Z" fill="white"/>
<path d="M11 74H10.633C10.4543 73.6288 10.2411 73.2925 10 73H10.2828C10.5975 73.3584 10.8382 73.724 11 74Z" fill="#EAD9EF"/>
<path d="M6.1361 76C6.04743 75.7764 6 75.5402 6 75.2961C6 74.2829 6.81744 73.4082 8 73V75.4884L6.1361 76Z" fill="#FBF9D1"/>
<path d="M8 75V72.0649C8.18048 72.0224 8.36763 72 8.55936 72C9.23684 72 9.856 72.2793 10.3302 72.7408H9.28609V73.341H10.8033C10.877 73.4637 10.9429 73.5932 11 73.7279L9.9702 74.1645H9.28609V74.4547L8 75Z" fill="white"/>
<path d="M11 74H10V73H10.6882C10.8069 73.2925 10.912 73.6288 11 74Z" fill="#F5EDF8"/>
<path d="M8.81033 77.1052C7.71766 77.1052 6.82881 76.2275 6.82881 75.1489C6.82881 74.0701 7.71766 73.1925 8.81033 73.1925C9.90298 73.1925 10.7918 74.0701 10.7918 75.1489C10.7918 76.2275 9.90298 77.1052 8.81033 77.1052ZM8.81033 72C7.05171 72 5.6208 73.4126 5.6208 75.1489C5.6208 75.8314 5.84255 76.4634 6.21776 76.9799L3.17683 79.9819C2.94106 80.2147 2.94106 80.5924 3.17683 80.8252C3.29481 80.9416 3.44941 81 3.60395 81C3.75855 81 3.91315 80.9416 4.031 80.8252L7.0941 77.801C7.59002 78.1151 8.1789 78.2978 8.81033 78.2978C10.5691 78.2978 12 76.8852 12 75.1489C12 73.4126 10.5691 72 8.81033 72Z" fill="#2D2A66"/>
<path d="M83.2234 80.0591C83.2234 79.3003 83.7961 78.683 84.5 78.683C85.2038 78.683 85.7766 79.3003 85.7766 80.0591V81.0555H83.2234V80.0591ZM86.41 81.0555V80.0591C86.41 78.9238 85.5534 78 84.5 78C83.4468 78 82.59 78.9238 82.59 80.0591V81.0555H82V85H87V81.0555H86.41Z" fill="#404EA9"/>
<path d="M85 83.3407C85 83.1524 84.7763 83 84.5001 83C84.2239 83 84 83.1524 84 83.3407C84 83.4818 84.1259 83.6029 84.305 83.6547V83.8576C84.305 83.9359 84.3992 84 84.5139 84C84.6287 84 84.7227 83.9359 84.7227 83.8576V83.6444C84.8866 83.5884 85 83.4741 85 83.3407Z" fill="#F2E9F6"/>
<path d="M16.2235 80.0591C16.2235 79.3003 16.7963 78.683 17.5002 78.683C18.2041 78.683 18.7766 79.3003 18.7766 80.0591V81.0555H16.2235V80.0591ZM19.4102 81.0555V80.0591C19.4102 78.9238 18.5534 78 17.5002 78C16.4469 78 15.59 78.9238 15.59 80.0591V81.0555H15V85H20V81.0555H19.4102Z" fill="#404EA9"/>
<path d="M18 83.3407C18 83.1524 17.776 83 17.4999 83C17.2237 83 17 83.1524 17 83.3407C17 83.4818 17.1258 83.6029 17.3052 83.6547V83.8576C17.3052 83.9359 17.399 84 17.5138 84C17.6285 84 17.7226 83.9359 17.7226 83.8576V83.6444C17.8864 83.5884 18 83.4741 18 83.3407Z" fill="#F2E9F6"/>
<path d="M74.2682 22.1092C75.2744 22.1092 76.0856 21.7426 76.616 21.0796L75.6332 20.1904C75.29 20.6038 74.8688 20.83 74.3462 20.83C73.4492 20.83 72.8252 20.206 72.8252 19.27C72.8252 18.334 73.4492 17.71 74.3462 17.71C74.8688 17.71 75.29 17.9362 75.6332 18.3496L76.616 17.4604C76.0856 16.7974 75.2744 16.4308 74.2682 16.4308C72.5366 16.4308 71.2652 17.6086 71.2652 19.27C71.2652 20.9314 72.5366 22.1092 74.2682 22.1092Z" fill="#404EA9"/>
</svg>
