<svg width="123" height="16" viewBox="0 0 123 16" fill="none" xmlns="http://www.w3.org/2000/svg">
<rect width="123" height="16" rx="8" fill="#51B7B7"/>
<circle cx="9.90463" cy="7.22788" r="7.22788" fill="#51B7B7"/>
<path d="M8.36977 2.93887C8.85419 2.93887 9.33948 2.93525 9.82391 2.93977C10.9637 2.95063 11.9489 3.37835 12.7863 4.18317C13.3893 4.76191 13.8033 5.46544 13.9991 6.30372C14.2473 7.36445 14.0987 8.37092 13.5834 9.30866C12.8799 10.5873 11.8209 11.3478 10.4415 11.6128C10.2362 11.6526 10.0275 11.6679 9.81789 11.6679C8.78634 11.6661 7.75392 11.667 6.72237 11.667C6.55746 11.667 6.57549 11.6833 6.57549 11.507C6.57549 10.486 6.57549 9.4651 6.57549 8.44416C6.57549 8.42065 6.57549 8.39714 6.57549 8.37363C6.57464 8.25336 6.57464 8.25155 6.45868 8.25155C5.89781 8.25155 5.3378 8.25155 4.77693 8.25155C4.74601 8.25155 4.71423 8.25065 4.68331 8.25155C4.6438 8.25245 4.62662 8.23346 4.6292 8.19187C4.63006 8.16836 4.6292 8.14484 4.6292 8.12133C4.6292 7.65291 4.6292 7.18449 4.6292 6.71607C4.6292 6.57591 4.61631 6.58314 4.76233 6.58314C5.31375 6.58314 5.86517 6.58314 6.4166 6.58314C6.44752 6.58314 6.4793 6.58224 6.51022 6.58314C6.55402 6.58495 6.57721 6.56686 6.57464 6.51803C6.57292 6.48096 6.57464 6.44298 6.57464 6.4059C6.57464 5.30086 6.57464 4.19583 6.57464 3.09079C6.57464 2.91897 6.55746 2.93887 6.71378 2.93887C7.26692 2.93796 7.81834 2.93887 8.36977 2.93887Z" fill="black"/>
<path d="M9.2542 8.25088C9.55653 8.25088 9.85887 8.25179 10.1612 8.25088C10.254 8.25088 10.2557 8.24817 10.2557 8.1496C10.2566 7.6631 10.2566 7.17569 10.2557 6.68918C10.2557 6.587 10.254 6.58519 10.1492 6.58519C9.57543 6.58428 9.00168 6.58519 8.42792 6.58519C8.397 6.58519 8.36522 6.58609 8.3343 6.58519C8.23638 6.58247 8.23467 6.58247 8.23467 6.47306C8.23381 5.88798 8.23381 5.30291 8.23467 4.71693C8.23467 4.61746 8.23638 4.61565 8.33001 4.61475C8.62805 4.61384 8.92609 4.60932 9.22414 4.61565C9.50414 4.62108 9.78243 4.58762 10.0633 4.61927C11.2056 4.74768 12.2346 5.66281 12.4373 6.89355C12.531 7.46415 12.4339 8.00582 12.1625 8.50499C11.6815 9.39119 10.9523 9.88673 9.98599 9.99706C9.7893 10.0197 9.59519 9.99525 9.40021 9.99344C9.05321 9.99073 8.70621 9.99254 8.35921 9.99254C8.22007 9.99254 8.23381 10.0016 8.23295 9.86775C8.23295 9.37129 8.23295 8.87484 8.23295 8.37929C8.23295 8.25269 8.23381 8.25269 8.35835 8.25269C8.65811 8.25088 8.95615 8.25088 9.2542 8.25088Z" fill="#51B7B7"/>
<path opacity="0.998" d="M22.832 4.83359L20.952 9.15359L19.088 4.83359H17.96L20.408 10.4336H21.432L23.872 4.83359H22.832ZM28.0626 8.32159C28.0626 6.98559 27.1506 6.11359 25.9026 6.11359C24.6306 6.11359 23.6946 7.02559 23.6946 8.29759C23.6946 9.56959 24.6226 10.4896 26.0546 10.4896C26.7906 10.4896 27.3906 10.2496 27.7746 9.79359L27.2386 9.17759C26.9346 9.48959 26.5586 9.64159 26.0786 9.64159C25.3346 9.64159 24.8146 9.24159 24.6946 8.61759H28.0466C28.0546 8.52159 28.0626 8.40159 28.0626 8.32159ZM25.9026 6.91359C26.5586 6.91359 27.0306 7.33759 27.1106 7.95359H24.6866C24.7826 7.32959 25.2546 6.91359 25.9026 6.91359ZM29.9752 6.78559V6.16159H29.0232V10.4336H30.0232V8.36159C30.0232 7.48959 30.5032 7.04159 31.2632 7.04159C31.3352 7.04159 31.4072 7.04959 31.4952 7.06559V6.11359C30.7832 6.11359 30.2632 6.33759 29.9752 6.78559ZM32.8475 5.45759C33.2235 5.45759 33.4875 5.18559 33.4875 4.83359C33.4875 4.50559 33.2155 4.25759 32.8475 4.25759C32.4795 4.25759 32.2075 4.52159 32.2075 4.85759C32.2075 5.19359 32.4795 5.45759 32.8475 5.45759ZM32.3435 10.4336H33.3435V6.16159H32.3435V10.4336ZM38.752 5.45759C39.128 5.45759 39.392 5.18559 39.392 4.83359C39.392 4.50559 39.12 4.25759 38.752 4.25759C38.384 4.25759 38.112 4.52159 38.112 4.85759C38.112 5.19359 38.384 5.45759 38.752 5.45759ZM34.792 5.92159V6.19359H34.088V6.99359H34.792V10.4336H35.792V6.99359H36.936V6.19359H35.76V5.93759C35.76 5.48159 35.976 5.24959 36.392 5.24959C36.6 5.24959 36.792 5.32159 36.944 5.42559L37.224 4.67359C37 4.51359 36.664 4.44159 36.32 4.44159C35.328 4.44159 34.792 5.02559 34.792 5.92159ZM38.248 10.4336H39.248V6.16159H38.248V10.4336ZM44.5783 8.32159C44.5783 6.98559 43.6663 6.11359 42.4183 6.11359C41.1463 6.11359 40.2103 7.02559 40.2103 8.29759C40.2103 9.56959 41.1383 10.4896 42.5703 10.4896C43.3063 10.4896 43.9062 10.2496 44.2903 9.79359L43.7543 9.17759C43.4503 9.48959 43.0743 9.64159 42.5943 9.64159C41.8503 9.64159 41.3303 9.24159 41.2103 8.61759H44.5623C44.5703 8.52159 44.5783 8.40159 44.5783 8.32159ZM42.4183 6.91359C43.0743 6.91359 43.5463 7.33759 43.6263 7.95359H41.2023C41.2983 7.32959 41.7703 6.91359 42.4183 6.91359ZM48.7228 4.49759V6.68959C48.3868 6.29759 47.8988 6.11359 47.3468 6.11359C46.1068 6.11359 45.1868 6.96959 45.1868 8.29759C45.1868 9.62559 46.1068 10.4896 47.3468 10.4896C47.9308 10.4896 48.4268 10.2896 48.7628 9.88159V10.4336H49.7228V4.49759H48.7228ZM47.4668 9.63359C46.7468 9.63359 46.1948 9.11359 46.1948 8.29759C46.1948 7.48159 46.7468 6.96159 47.4668 6.96159C48.1868 6.96159 48.7388 7.48159 48.7388 8.29759C48.7388 9.11359 48.1868 9.63359 47.4668 9.63359ZM57.3059 7.52159C57.7379 7.28959 58.0259 6.86559 58.0259 6.28959C58.0259 5.40159 57.3059 4.83359 55.9619 4.83359H53.3379V10.4336H56.1219C57.5619 10.4336 58.3139 9.87359 58.3139 8.91359C58.3139 8.18559 57.9059 7.71359 57.3059 7.52159ZM55.8499 5.64959C56.5699 5.64959 56.9779 5.90559 56.9779 6.42559C56.9779 6.93759 56.5699 7.19359 55.8499 7.19359H54.3779V5.64959H55.8499ZM56.0579 9.61759H54.3779V8.00159H56.0579C56.8419 8.00159 57.2659 8.24959 57.2659 8.80959C57.2659 9.36959 56.8419 9.61759 56.0579 9.61759ZM62.3679 6.16159L61.0159 9.32159L59.6719 6.16159H58.6319L60.4959 10.4496L60.4239 10.6176C60.2319 11.0416 60.0239 11.2096 59.6719 11.2096C59.3999 11.2096 59.1279 11.0976 58.9359 10.9136L58.5359 11.6496C58.8079 11.8976 59.2559 12.0416 59.6799 12.0416C60.3919 12.0416 60.9359 11.7456 61.3279 10.7776L63.3279 6.16159H62.3679ZM70.0838 9.31359C69.7238 9.52159 69.3318 9.60159 68.9318 9.60159C67.7478 9.60159 66.9078 8.76959 66.9078 7.63359C66.9078 6.47359 67.7478 5.66559 68.9398 5.66559C69.5398 5.66559 70.0438 5.86559 70.4838 6.30559L71.1398 5.66559C70.6118 5.06559 69.8278 4.75359 68.8918 4.75359C67.1398 4.75359 65.8598 5.96159 65.8598 7.63359C65.8598 9.30559 67.1398 10.5136 68.8758 10.5136C69.6678 10.5136 70.4838 10.2736 71.0678 9.80159V7.56959H70.0838V9.31359ZM74.2635 10.4896C75.5915 10.4896 76.5435 9.57759 76.5435 8.29759C76.5435 7.01759 75.5915 6.11359 74.2635 6.11359C72.9515 6.11359 71.9915 7.01759 71.9915 8.29759C71.9915 9.57759 72.9515 10.4896 74.2635 10.4896ZM74.2635 9.63359C73.5435 9.63359 72.9995 9.11359 72.9995 8.29759C72.9995 7.48159 73.5435 6.96159 74.2635 6.96159C74.9915 6.96159 75.5355 7.48159 75.5355 8.29759C75.5355 9.11359 74.9915 9.63359 74.2635 9.63359ZM80.4226 6.16159L79.0546 9.32959L77.7266 6.16159H76.6866L78.5186 10.4336H79.5506L81.3826 6.16159H80.4226ZM85.9064 8.32159C85.9064 6.98559 84.9944 6.11359 83.7464 6.11359C82.4744 6.11359 81.5384 7.02559 81.5384 8.29759C81.5384 9.56959 82.4664 10.4896 83.8984 10.4896C84.6344 10.4896 85.2344 10.2496 85.6184 9.79359L85.0824 9.17759C84.7784 9.48959 84.4024 9.64159 83.9224 9.64159C83.1784 9.64159 82.6584 9.24159 82.5384 8.61759H85.8904C85.8984 8.52159 85.9064 8.40159 85.9064 8.32159ZM83.7464 6.91359C84.4024 6.91359 84.8744 7.33759 84.9544 7.95359H82.5304C82.6264 7.32959 83.0984 6.91359 83.7464 6.91359ZM87.8189 6.78559V6.16159H86.8669V10.4336H87.8669V8.36159C87.8669 7.48959 88.3469 7.04159 89.1069 7.04159C89.1789 7.04159 89.2509 7.04959 89.3389 7.06559V6.11359C88.6269 6.11359 88.1069 6.33759 87.8189 6.78559ZM92.6113 6.11359C91.9873 6.11359 91.4673 6.32159 91.1393 6.71359V6.16159H90.1873V10.4336H91.1873V8.27359C91.1873 7.41759 91.6673 6.98559 92.3793 6.98559C93.0193 6.98559 93.3953 7.35359 93.3953 8.11359V10.4336H94.3953V7.98559C94.3953 6.69759 93.6353 6.11359 92.6113 6.11359ZM101.056 6.11359C100.376 6.11359 99.7998 6.38559 99.4558 6.82559C99.1598 6.34559 98.6398 6.11359 98.0158 6.11359C97.4318 6.11359 96.9358 6.32159 96.6158 6.70559V6.16159H95.6638V10.4336H96.6638V8.26559C96.6638 7.41759 97.1118 6.98559 97.7758 6.98559C98.3838 6.98559 98.7358 7.35359 98.7358 8.11359V10.4336H99.7358V8.26559C99.7358 7.41759 100.192 6.98559 100.848 6.98559C101.456 6.98559 101.808 7.35359 101.808 8.11359V10.4336H102.808V7.98559C102.808 6.69759 102.088 6.11359 101.056 6.11359ZM108.141 8.32159C108.141 6.98559 107.229 6.11359 105.981 6.11359C104.709 6.11359 103.773 7.02559 103.773 8.29759C103.773 9.56959 104.701 10.4896 106.133 10.4896C106.869 10.4896 107.469 10.2496 107.853 9.79359L107.317 9.17759C107.013 9.48959 106.637 9.64159 106.157 9.64159C105.413 9.64159 104.893 9.24159 104.773 8.61759H108.125C108.133 8.52159 108.141 8.40159 108.141 8.32159ZM105.981 6.91359C106.637 6.91359 107.109 7.33759 107.189 7.95359H104.765C104.861 7.32959 105.333 6.91359 105.981 6.91359ZM111.525 6.11359C110.901 6.11359 110.381 6.32159 110.053 6.71359V6.16159H109.101V10.4336H110.101V8.27359C110.101 7.41759 110.581 6.98559 111.293 6.98559C111.933 6.98559 112.309 7.35359 112.309 8.11359V10.4336H113.309V7.98559C113.309 6.69759 112.549 6.11359 111.525 6.11359ZM116.866 9.48959C116.714 9.60959 116.514 9.66559 116.306 9.66559C115.922 9.66559 115.714 9.44159 115.714 9.02559V6.99359H116.858V6.19359H115.714V5.21759H114.714V6.19359H114.01V6.99359H114.714V9.04959C114.714 9.99359 115.25 10.4896 116.186 10.4896C116.546 10.4896 116.906 10.3936 117.146 10.2016L116.866 9.48959Z" fill="black"/>
</svg>
